<?xml version="1.0" encoding="UTF-8"?>
<svg id="Layer_1" xmlns="http://www.w3.org/2000/svg" xmlns:xlink="http://www.w3.org/1999/xlink" version="1.1" viewBox="0 0 1024 1024">
  <!-- Generator: Adobe Illustrator 29.6.1, SVG Export Plug-In . SVG Version: 2.1.1 Build 9)  -->
  <defs>
    <style>
      .st0 {
        fill: #fefdfd;
      }

      .st1 {
        fill: #010101;
      }

      .st2 {
        fill: url(#linear-gradient2);
      }

      .st3 {
        fill: url(#linear-gradient1);
      }

      .st4 {
        fill: url(#linear-gradient9);
      }

      .st5 {
        fill: url(#linear-gradient3);
      }

      .st6 {
        fill: url(#linear-gradient6);
      }

      .st7 {
        fill: url(#linear-gradient8);
      }

      .st8 {
        fill: url(#linear-gradient7);
      }

      .st9 {
        fill: url(#linear-gradient5);
      }

      .st10 {
        fill: url(#linear-gradient4);
      }

      .st11 {
        fill: #dfdfe0;
      }

      .st12 {
        fill: url(#linear-gradient18);
      }

      .st13 {
        fill: url(#linear-gradient13);
      }

      .st14 {
        fill: url(#linear-gradient12);
      }

      .st15 {
        fill: url(#linear-gradient15);
      }

      .st16 {
        fill: url(#linear-gradient16);
      }

      .st17 {
        fill: url(#linear-gradient11);
      }

      .st18 {
        fill: url(#linear-gradient10);
      }

      .st19 {
        fill: url(#linear-gradient17);
      }

      .st20 {
        fill: url(#linear-gradient14);
      }

      .st21 {
        fill: url(#linear-gradient19);
      }

      .st22 {
        fill: url(#linear-gradient22);
      }

      .st23 {
        fill: url(#linear-gradient21);
      }

      .st24 {
        fill: url(#linear-gradient20);
      }

      .st25 {
        fill: #888789;
      }

      .st26 {
        fill: url(#linear-gradient);
      }

      .st27 {
        fill: #292729;
      }

      .st28 {
        fill: #555355;
      }

      .st29 {
        fill: #bfbebf;
      }

      .st30 {
        fill: #e2e2dd;
      }

      .st31 {
        font-size: 220px;
        letter-spacing: 0em;
      }

      .st31, .st32 {
        font-family: AndaleMono, 'Andale Mono';
      }

      .st32 {
        font-size: 190px;
      }

      .st33 {
        letter-spacing: 0em;
      }

      .st34 {
        letter-spacing: 0em;
      }

      .st35 {
        fill: #131213;
      }

      .st36 {
        letter-spacing: -.1em;
      }

      .st37 {
        letter-spacing: -.1em;
      }

      .st38 {
        fill: #9e9e9e;
      }

      .st39 {
        fill: #413f41;
      }

      .st40 {
        fill: #79787a;
      }
    </style>
    <linearGradient id="linear-gradient" x1="988.6" y1="591.8" x2="1005.2" y2="582.8" gradientTransform="translate(0 1024) scale(1 -1)" gradientUnits="userSpaceOnUse">
      <stop offset="0" stop-color="#b3b2b3"/>
      <stop offset="1" stop-color="#dbdadb"/>
    </linearGradient>
    <linearGradient id="linear-gradient1" x1="981.2" y1="531" x2="997.8" y2="518.4" gradientTransform="translate(0 1024) scale(1 -1)" gradientUnits="userSpaceOnUse">
      <stop offset="0" stop-color="#6e6876"/>
      <stop offset="1" stop-color="#999f9a"/>
    </linearGradient>
    <linearGradient id="linear-gradient2" x1="975.6" y1="543.5" x2="1001.1" y2="536.4" gradientTransform="translate(0 1024) scale(1 -1)" gradientUnits="userSpaceOnUse">
      <stop offset="0" stop-color="#3d3c3d"/>
      <stop offset="1" stop-color="#5d5c5f"/>
    </linearGradient>
    <linearGradient id="linear-gradient3" x1="895.2" y1="424.8" x2="913.4" y2="420.2" gradientTransform="translate(0 1024) scale(1 -1)" gradientUnits="userSpaceOnUse">
      <stop offset="0" stop-color="#67646a"/>
      <stop offset="1" stop-color="#9b9b9b"/>
    </linearGradient>
    <linearGradient id="linear-gradient4" x1="886.6" y1="419.4" x2="884.8" y2="424.8" gradientTransform="translate(0 1024) scale(1 -1)" gradientUnits="userSpaceOnUse">
      <stop offset="0" stop-color="#3c3b3d"/>
      <stop offset="1" stop-color="#5a595b"/>
    </linearGradient>
    <linearGradient id="linear-gradient5" x1="954.3" y1="496.1" x2="977.1" y2="491.2" gradientTransform="translate(0 1024) scale(1 -1)" gradientUnits="userSpaceOnUse">
      <stop offset="0" stop-color="#78757c"/>
      <stop offset="1" stop-color="#a9aaa9"/>
    </linearGradient>
    <linearGradient id="linear-gradient6" x1="953.2" y1="504.6" x2="972.9" y2="500.4" gradientTransform="translate(0 1024) scale(1 -1)" gradientUnits="userSpaceOnUse">
      <stop offset="0" stop-color="#636064"/>
      <stop offset="1" stop-color="#8e9092"/>
    </linearGradient>
    <linearGradient id="linear-gradient7" x1="919.6" y1="472.5" x2="942.1" y2="466.8" gradientTransform="translate(0 1024) scale(1 -1)" gradientUnits="userSpaceOnUse">
      <stop offset="0" stop-color="#505057"/>
      <stop offset="1" stop-color="#807f83"/>
    </linearGradient>
    <linearGradient id="linear-gradient8" x1="885.1" y1="441.7" x2="916.5" y2="439.4" gradientTransform="translate(0 1024) scale(1 -1)" gradientUnits="userSpaceOnUse">
      <stop offset="0" stop-color="#3c3a3a"/>
      <stop offset="1" stop-color="#6c6b70"/>
    </linearGradient>
    <linearGradient id="linear-gradient9" x1="893.2" y1="423.8" x2="893.8" y2="433.6" gradientTransform="translate(0 1024) scale(1 -1)" gradientUnits="userSpaceOnUse">
      <stop offset="0" stop-color="#474648"/>
      <stop offset="1" stop-color="#8d8c8f"/>
    </linearGradient>
    <linearGradient id="linear-gradient10" x1="718.1" y1="259" x2="740.9" y2="248.8" gradientTransform="translate(0 1024) scale(1 -1)" gradientUnits="userSpaceOnUse">
      <stop offset="0" stop-color="#282625"/>
      <stop offset="1" stop-color="#48484b"/>
    </linearGradient>
    <linearGradient id="linear-gradient11" x1="949.5" y1="513.3" x2="962.1" y2="508.9" gradientTransform="translate(0 1024) scale(1 -1)" gradientUnits="userSpaceOnUse">
      <stop offset="0" stop-color="#3f3e43"/>
      <stop offset="1" stop-color="#5e5e63"/>
    </linearGradient>
    <linearGradient id="linear-gradient12" x1="831.2" y1="359" x2="850.8" y2="352.8" gradientTransform="translate(0 1024) scale(1 -1)" gradientUnits="userSpaceOnUse">
      <stop offset="0" stop-color="#4c4a4c"/>
      <stop offset="1" stop-color="#747475"/>
    </linearGradient>
    <linearGradient id="linear-gradient13" x1="862.3" y1="355.3" x2="840.1" y2="368.8" gradientTransform="translate(0 1024) scale(1 -1)" gradientUnits="userSpaceOnUse">
      <stop offset="0" stop-color="#a2a4a3"/>
      <stop offset="1" stop-color="#514d50"/>
    </linearGradient>
    <linearGradient id="linear-gradient14" x1="696" y1="230.7" x2="719.2" y2="227.6" gradientTransform="translate(0 1024) scale(1 -1)" gradientUnits="userSpaceOnUse">
      <stop offset="0" stop-color="#2c2b2c"/>
      <stop offset="1" stop-color="#4c4c4d"/>
    </linearGradient>
    <linearGradient id="linear-gradient15" x1="916.6" y1="453.4" x2="940.6" y2="467.9" gradientTransform="translate(0 1024) scale(1 -1)" gradientUnits="userSpaceOnUse">
      <stop offset="0" stop-color="#5c5b5d"/>
      <stop offset="1" stop-color="#818183"/>
    </linearGradient>
    <linearGradient id="linear-gradient16" x1="912" y1="449.9" x2="920.8" y2="444.6" gradientTransform="translate(0 1024) scale(1 -1)" gradientUnits="userSpaceOnUse">
      <stop offset="0" stop-color="#514f51"/>
      <stop offset="1" stop-color="#69696b"/>
    </linearGradient>
    <linearGradient id="linear-gradient17" x1="944.1" y1="452.7" x2="926.2" y2="457.6" gradientTransform="translate(0 1024) scale(1 -1)" gradientUnits="userSpaceOnUse">
      <stop offset="0" stop-color="#a8a8a9"/>
      <stop offset="1" stop-color="#7b797c"/>
    </linearGradient>
    <linearGradient id="linear-gradient18" x1="875.8" y1="373.4" x2="862.4" y2="383.3" gradientTransform="translate(0 1024) scale(1 -1)" gradientUnits="userSpaceOnUse">
      <stop offset="0" stop-color="#a7a9a6"/>
      <stop offset="1" stop-color="#7e7a7e"/>
    </linearGradient>
    <linearGradient id="linear-gradient19" x1="667.7" y1="199.2" x2="679.3" y2="190.6" gradientTransform="translate(0 1024) scale(1 -1)" gradientUnits="userSpaceOnUse">
      <stop offset="0" stop-color="#262425"/>
      <stop offset="1" stop-color="#4f4f51"/>
    </linearGradient>
    <linearGradient id="linear-gradient20" x1="935.9" y1="488.8" x2="951.7" y2="479.4" gradientTransform="translate(0 1024) scale(1 -1)" gradientUnits="userSpaceOnUse">
      <stop offset="0" stop-color="#47454a"/>
      <stop offset="1" stop-color="#78797f"/>
    </linearGradient>
    <linearGradient id="linear-gradient21" x1="970" y1="484.3" x2="957.6" y2="490.3" gradientTransform="translate(0 1024) scale(1 -1)" gradientUnits="userSpaceOnUse">
      <stop offset="0" stop-color="#a3a4a3"/>
      <stop offset="1" stop-color="#828085"/>
    </linearGradient>
    <linearGradient id="linear-gradient22" x1="899.7" y1="454.9" x2="891.8" y2="461" gradientTransform="translate(0 1024) scale(1 -1)" gradientUnits="userSpaceOnUse">
      <stop offset="0" stop-color="#5f595f"/>
      <stop offset="1" stop-color="#858686"/>
    </linearGradient>
  </defs>
  <g>
    <path class="st1" d="M379,50.3c34.7-.6,70.6-.1,105.4-.2l225.5.2h177c26,.2,55.3-.6,81,.4v198.3c.1,0,0,89.6,0,89.6,0,18.3.1,36.6,0,54.9,0,2.1,0,5-1.1,6.7l-.6-.6c-1.5-5.4-.7-26.6-.7-33.4l.3-66.8-.3-84.6c0-53.8.4-108.2-.3-161.9-10.9-.8-27.5-.3-38.6-.3h-71.1s-215.8,0-215.8,0l-601.2.5-.4,464.1c.6,53.3.3,107.8.3,161.1v186.8c0,0,.3,106.8.3,106.8l371.3.2c9.8,0,106.3-.8,109,.5l.2.8c-1.4.9-3.5.9-5.2.9-23.4,0-46.9-.1-70.4,0h-176.8s-156.7,0-156.7,0c-24.5,0-49.4.8-73.8.3-.8-8.2-.3-24.1-.3-32.7v-57.8s0-190.8,0-190.8V50.6c38.3-.6,77.8,0,116.2,0l226.8-.3Z"/>
    <path class="st1" d="M966.1,590.2l1.1.6c.8,1.2.9,2.7.9,4.1-.2,15.6-.1,31.4,0,47v106.4s0,150.8,0,150.8c0,24.8.3,50.2-.1,75-17.8.7-34.6,0-52.3,0h-97.7c0,0-161.5,0-161.5,0-27.6,0-56.1.6-83.6.3l-.5-.9.7-.7c5.3-1.4,28.7-.9,36-.9h72.7s190.8,0,190.8,0h56c11.7-.2,25.8-.8,37.3,0v-264.7c0,0-.1-78.3-.1-78.3,0-10.5-.5-29.2.7-38.8Z"/>
    <path class="st1" d="M99.6,615.6c9.4-.8,30.6-.2,41.1-.2h81.1s260.6,0,260.6,0l192.8.2,48.1.2c4.4,0,28.6-1.1,30.4,1.2h-1c0,.1-.7.8-.7.8h-1.6c0,0-209.2-.2-209.2-.2-38.7,0-437.6,1.2-441.1-.5l-.5-1.6Z"/>
    <path class="st1" d="M401.4,670.2h202.6c0,.1,66.4.5,66.4.5,10.8,0,22,0,32.8,0,1.4,0,3.6.6,4.8,1.5-2.5,1.3-272.5.4-302.2.6h-215.4c0,0-55.5.3-55.5.3-10.4,0-29.4.5-38.8-1.7,8.5-1.3,24.4-.8,33.6-.8h56s215.6-.5,215.6-.5Z"/>
    <path class="st1" d="M767.5,559.7c3.9,0,28.3-.7,29.8,1.4-2.2,1.6-20.2.9-23.9.9h-49.1s-146.8,0-146.8,0H130.8c-4.8,0-28.7.7-31.3-1.1,2.7-1.6,18-1,22-1h34.4s107.2,0,107.2,0h333.1c0,0,109,0,109,0,20,0,42.4.4,62.3-.3Z"/>
    <path class="st1" d="M104.1,783.3c10.2-.5,23.1,0,33.6,0h64.4s197.9.2,197.9.2h140.4c16.6,0,33.3-.1,49.9.6,4.3.2,24.4-1.2,26.3,1-1,1.1-1.2.7-3.1,1l-336.9-.4h-114.1c-7.5,0-61.2.8-63.5-1.2,2.4-1,2-.8,5-1.1Z"/>
    <path class="st1" d="M105.9,727.2c20.5-.7,45,.3,65.9.3l160,.3,196.5.2c36.4,0,72.8-.6,109.2-.3,2.7,0,14.2,0,15.8,1.7-1.5.9-2.5.5-4.4.6l-415.6-.3h-102.2c-5.3-.1-27.8.1-31.3-.7l-.4-.7c1.3-1.3,4.2-.9,6.5-1.1Z"/>
    <path class="st1" d="M428.8,838.7c10.4-.7,21.7,0,32.2.2,7.5.2,15.3,0,22.9,0h58.7c5.7,0,36.5-.7,38.8,1.1l-.2.8c-2.1,1.1-36.4.6-41.1.6l-90.8-.5h-195.5s-94.1.2-94.1.2c-8.4,0-56.7,1.3-60-.6v-.9c2-1.3,79.9-.7,90.3-.7h170.8s42.7,0,42.7,0c7.5,0,18,.3,25.3-.3Z"/>
    <path class="st1" d="M99,895.7h2.1c35.2-1.1,73.4,0,108.7.1l165-.3,117.3.4c17.5,0,34.9-.8,52.4-.3,1.8,0,2.2.6,3.4,1.8-2,.8-4.9.6-7.1.6H189.3c-8.6,0-86.7.6-89.8-.7l-.5-1.6Z"/>
    <path d="M173.8,106.2c5.6-.5,15.9,1,20.8,4,8.3,5,9.8,11,12,19.4-2.3,10.5-5.3,15.7-16.4,19.4-6.8,2.3-16.6,3.1-23.2-.2-4.7-2.4-6.1-5.7-7.5-10.5l3.3-9.5c11-7.1,19.2-4.7,25.7,6.1-2.5-2.8-4.3-4.2-7.2-6.6-4.1-.9-8.2-1.6-11.9.6-9.4,5.6-4.4,16.5,5.2,17.6,10.2,1.1,19.5-3.3,27.2-9.2.6-2.5,1.3-4.5,1.1-7.2-.2-2.9-.6-2.8,1.1-4.8-3.1-1.7-2.3-2.2-3.9-5.1-4.1-7.5-12.9-8.8-20.6-9.8-.4-.5-.8-1.1-1.3-1.6-4.6,1.5-8.7,2.1-12.4,3.4-8,3.4-15.8,10.6-18.8,18.9-6.6,18.1,7.7,33.4,23.8,39,18,6.2,33.4,4,50.4-3.9-14.7,12.6-28.5,13.1-47.3,9.4-10.6-2.8-23.2-9.6-28.8-19.3-5.7-9.7-3.7-18.7-1.9-28.5,3.9-3.7,3.5-6.3,6.1-9.4,6.5-7.7,14.8-11.1,24.3-12.3Z"/>
    <path d="M801.6,104.7c13.9-.3,29.1,4.1,37.5,15.8.7,1,5.7,10.1,5.8,10.8-.6,1-.6,1-1.5,1.7,5,4.6,0,17.3-2.1,22.8-2.4,6.3-9.8,12.5-16.1,14.8-17.4,6.2-36.3,6-53.4-1.3-7.5-3.2-11.3-6.1-14.2-13.4,11.9,9.5,26.1,15.6,41.5,15.5,22.4-.2,43.6-13,41.9-37.9-1.9-6.3-4.3-10.5-9.5-15-12.4-10.7-36.4-15.3-48.4-1.6-4.4,5-3,6.9-3.9,11.7v.5c5,7.2,4.9,10.9,15.2,14.4,6.7,2.3,20.8,1.1,23.2-7.5,2.6-9.5-13.7-11.3-14.8-12.9l.8-.8c6.8-1.4,21.4,7.2,17.2,16.4-4.7,10.4-20.5,10.6-29.8,7.3-11.4-4-17.3-15.4-13.2-26.8,3.2-8.6,11.8-10.1,19.1-13.6,1.1-.6,3.3,1.5,5,1.6l-.7-1.3.5-.8Z"/>
    <path d="M261,133.2c3.8-.7,4.9-1.2,8.6-2.2,7.4-2,15.3-.3,19.7,6.5,11.3,17.4-7,39.4-25.6,35.5-7.6,3.6-20.4-5.2-26.1-10.1-13.6-11.6-13.2-35.2-1.1-47.7,8-8.2,20.1-13.6,31.8-13.2,15.6.5,27,8.4,37.7,19.3-2.6.3-3.2.4-5.8.2-7.5-6.4-16.6-12.1-26-15.3-3.5.6-3,1-6.2-.4-.3-.2-5.5,1-6.2,1.2-17.3,3.9-31.8,18.5-29,37.1,1.1,7.5,7.4,15.7,13.8,19.4,4.1,2.5,12.5,6.4,17.1,6.9l1.4-1.3c1.2.4.9.3,2.1,1.1,3.6-1.7,3.6-1.6,7.4-2.8,7.9-2.5,12.9-9.8,15.1-17.6-3-11.2-8.5-19.3-21.8-15.8-2.6.7-2.6,2.5-5.5,2.4l-1.2-3.1Z"/>
    <path d="M319.3,104.7c2.7-40.3,68.8-49.1,86.5-12.2,1.7,3.2,2.8,7.6,3.8,11.2,2.6,15.7-7.2,26.4-22.4,29.7-6.1,1.3-14.7-.7-19.6-4.5-8.1-6.9-6.6-14.6-1.2-22.1-.6,2.5-1.7,6.1-1.6,8.7.2,16.3,19.2,17.9,30,10.1,5.3-3.8,7.1-6.4,10.4-12,.1-24.7-16.2-38.8-40.6-40.1-13.9-.8-34.6,8.9-39.8,23.6-.5,1.5.1,3.4-1,6.3-1.1.3-3.6,1.2-4.5,1.4Z"/>
    <path d="M405.8,92.5c1.7,3.2,2.8,7.6,3.8,11.2-3.9-2.6-6.2-6.7-3.8-11.2Z"/>
    <path d="M680.4,116.4l2,5.7c-20.8,20.1-35.2,39.5-65.6,47.1-3.1.8-7.2.6-10.1,1.2-8.2,1.8-18.4,2.2-26.8,2-7.1-.2-24.9-1.5-31.1-3.6-1.9-1.8-2.9-1.1-4-2.6,1.1-1.2,1.2-.9,3-1.5,18.1,2.3,28.3,4.5,46.9,2.2,24.5-3,42.1-9.3,60.9-26.1,8.5-7.6,16.3-17.9,24.9-24.6Z"/>
    <path d="M684.8,112.9c12.6-8.5,28.6-14.4,43.6-9.1,1.6.6,3.9,0,5.6.6,22.2,8.6,34.5,27.3,22.4,50.1-.2.4,1.1,1.8-.1,1.9-3.1,2.3-5.8,6.2-8.8,8.6-10.2,8.1-27.3,11.7-39.4,6.2l.8-3.4c18.8,8.8,41.6-3.9,46.5-23.4,4.9-19.7-11.3-32.9-28.7-36.5-16-3.3-27.9,2.6-40.7,11.2l-3.7,3.3-2-5.7c1-1.2,3.1-2.6,4.4-3.5Z"/>
    <path d="M680.4,116.4c1-1.2,3.1-2.6,4.4-3.5.2,2.7.1,3.6,1.3,6l-3.7,3.3-2-5.7Z"/>
    <path d="M337.7,151.1c1.2.5,1.6,1,2.5.7-.7-1.4-4-5.4-5.2-6.8-7.2-8.4-14.3-18.7-14-30.3l-1-1.3.4-.5c1.9.3,2.3.4,4,1.1.9,12.9,13.7,31.8,23.4,40.3,22.1,19.4,57.5,15.4,84.6,12.3,4.4-.5,10.7-2.7,14.7-2.8l1.1,1.5c-7,2.5-13.2,4.2-20.7,5.4-22.1,3.6-48.9,4.5-69.8-3.8-6.9-2.8-14.8-8.2-20.8-12.5.2-1.6.3-1.7.9-3.2Z"/>
    <path class="st1" d="M687,895.3c11.9-.6,27.5-.2,39.7-.2h70.1s68.3.2,68.3.2c12,0,24.1,0,36.1.4,2.4,0,3.2.2,4.8,1.6-5.5,1.8-39.5.5-48,.4h-102.6c0,0-43.2,0-43.2,0-4.7,0-23.7.9-25.7-1.6l.5-.7Z"/>
    <path d="M635.1,72.6l2.6,1c41.3,22.8,22.2,60.7-13.2,76.7-7.4,3.3-14.2,4.6-22.2,5.2l.6-.3c5.5-2.7,12.3-4.1,18.1-6.3,30.8-12.1,54.2-49.8,15.8-70.4l-4-1.5c1.3-1.7,1.4-2.2,2.3-4.3Z"/>
    <path d="M635.1,72.6l2.6,1c-.2,2.1-.3,2.8-.9,4.8l-4-1.5c1.3-1.7,1.4-2.2,2.3-4.3Z"/>
    <path d="M564.4,85l.3.3c-1.7,4.1-6,9.4-7.8,14.1-6.2,16.6,9.3,30.2,21.2,39,4.4,3.2,17.6,8.1,19.5,12.5.3,4-2.1,7.4-6,8.2-9.1,2-19.9-2.3-27.6-6.5-1.3-1.1-1.7-1-1.8-2.3,5.2-1.8,27.2,13.3,31.4,2-.9-2.4-7.4-5.5-9.7-6.8-16.6-8.8-39.3-27.9-28.8-49.2,2.2-4.5,5.5-7.8,9.2-11.3Z"/>
    <path d="M669.3,146.7c.8.5,1.3.8,2.1,1.2l.9-.4c7.2.4,6.9,3.8,8.5,10-3.2,5.7-7.7,8.9-14.2,9.8-4.1.2-11.3.3-13-4.1.6-5.8,7-10.2,11.4-13.4,2.3-1.7,2.1,0,4.3-3.1ZM665.1,163.7c4.5-.1,11.7-4.2,11.9-9.2-1.6-3.4-4.2-2.6-7.5-2.4-3.3,1.3-9.7,5.7-11.2,9.1.2,3,4.4,2.5,6.9,2.5Z"/>
    <path class="st1" d="M756.9,839.7c9.5-.5,20.5-.1,30.1-.1h53.3s43.9,0,43.9,0c4.4,0,18.2-1,21,1.1v1.3c0,0-96.3,0-96.3,0-16,0-32.4.1-48.4-.1-1.4,0-2.9-.2-3.9-1.2l.2-.9Z"/>
    <path d="M597.7,101.8c6.8-9.5,15.7-11,25.5-3.5,17.2,13.1,6.5,38.6-14.4,38.8-6.5.2-12-1.5-17.3-4.7,1.5-1.1,1.8-1.6,2.9-3.1,7.8,3.4,13.5,4.5,21.9,1.5,9.7-3.5,15.1-14.6,10.4-24-3.4-6.9-9.6-9-16.3-11.2-5.3,2-8.3,4.5-12.6,6.2Z"/>
    <path d="M708.2,171.1c-3.6-1.9-8-4.2-10.9-7-9-8.7-9.3-23.4-.6-32.4,2.7-2.8,7.8-5.8,11.7-5.9.5,1,.1.7,1.1,1.1,1.1-1.6.5-1.3,1.9-1.8.4.8.4.9.6,1.7,9.6-1,9.7.6,16.1,7.3l-2.1,1.9c-5.9-.7-7.3-8.9-17.4-5.6-19.4,6.4-18.1,28.2.6,37.3l-.8,3.4Z"/>
    <path d="M314.1,147c10.2-.5,21.1,12.5,7.5,19.5-7.8,4.8-22.6-9.5-7.5-19.5ZM320,163.4c8.1-5.2,1.8-12.8-5.5-13.1-6.7,6.1-2.2,13,5.5,13.1Z"/>
    <path d="M597,74.1c-.2,2.4-1.6,4.4-2.8,6.5-4.7,3.7-7.6,6.2-10.9,11.2-1.4,2-2.4,5.2-3.2,6.5l-1,4.2c-1.9,12.4,4.9,21.3,15.3,26.8-1.1,1.5-1.3,2-2.9,3.1-28.8-15.9-19.4-44.8,5.5-58.3Z"/>
    <path d="M579.1,102.4c-1.2,1.7-1.4,2.3-3,3.4l-.8-.3c-.2-3.4,2.2-5.5,4.8-7.2l-1,4.2Z"/>
    <path d="M674.2,82.5c12.6-1.7,21.7,11.7,8.6,18.4-14.4,2.2-19.2-11.9-8.6-18.4ZM680.9,97.5c7.3-5.3,2.1-12.2-5.3-11.4-6.6,4.2-1.9,11.8,5.3,11.4Z"/>
    <path d="M303.5,80.9c2.5,1.2,4.6.9,6.3,1.8.1,1.1.2,1.4.5,2.5,5.9,0,5.8,11.8-3.6,15.6-2.1-.8-4.7-.7-6.3-1.7-9.1-5.7-6.9-15.7,3.1-18.2ZM306.9,96.3c1.9-.7,1.9-.8,3.2-2.2,1.2-4.8-3.9-8.1-7.9-9.2-1.9,1.9-3.7,3.2-3.6,6.1.2,4.5,4.6,5.7,8.3,5.3Z"/>
    <path class="st1" d="M867.8,785.2c3.9-.5,32.5-.2,35.2.8,1.1.4.8,0,1.3,1-2.6,1.2-54.2.6-61.3.6-10.8,0-31.6,1.4-40.8-1.5,21.9-1,43.7-.7,65.6-.9Z"/>
    <path d="M419.8,85.9c.5.2,1,.3,1.4.7,10.1,8.3,14,21.5,7.5,33.4-6,10.9-20.8,22.4-33.3,23.8-1.7.2-1,.4-2.4-.3.7-.8,8.5-3.3,11-4.8,10-5.8,20.4-14.1,23.8-25.6,2.9-9.8-3.3-19-8.1-27.2Z"/>
    <path d="M306.1,121.3c10.7,9.5,20.6,20.8,31.7,29.8-.6,1.5-.7,1.6-.9,3.2-12-8.5-25.2-22.8-36.6-32.9,2.6.2,3.2.2,5.8-.2Z"/>
    <path d="M604.8,70.5c3,.7,4.9-.3,8.2-.6,7.3-.7,15.2.1,22.1,2.6-.8,2.1-1,2.5-2.3,4.3-9.1-3.4-18-3.1-27.3-1-1.2-2.3-1-2.7-.8-5.4Z"/>
    <path class="st1" d="M851,727.1c16.3-.7,33.3.1,49.7-.1,2.6,0,4.3-.2,5.7,2.1-12.9,1.3-30.7,0-44,.4-3.9,0-8.8.3-11.4-2.3Z"/>
    <path d="M339.6,104.5c2.5-5.3,6.4-10,12.1-11.8,11.3-3.6,19.3,0,26.9,8.2-12.1-5.9-27.3-12.4-35.8,3.7h-3.3Z"/>
    <path d="M545.9,136.6c4,.5,6.3.8,9.7,3.6,3.1,2.2,6.4,9.1,2.9,12.4-4.3,4-9.9-1.9-12.3-4.6v-.8c2.3-.6,6,5.4,9.4,1.8.5-1.9-.2-3.7-.7-5.6-2-1.5-4.4-3.7-6.7-3.9l-.6.3c-1.8.8-3.6,1.8-5.5.5.5-2,2.1-2.8,3.8-3.5Z"/>
    <path d="M437.1,136c3.9-.1,7.3,2.2,5.6,6.3h-.9c-.4-1.3-.5-2.3-1.5-3-3.9-.1-11.2,3.6-11.8,8,.7,2,.1,1.2,1.7,2.5,3.2.6,5.1-.6,8-2l.9-.5.6.2c-1.1,3.2-7.6,6.9-10.9,6.6-3.3-.5-3.8-5.1-2.9-7.6,1.9-5.3,6.3-8.1,11-10.5Z"/>
    <path d="M345.4,131.3c3.6.4,8.9,6.1,12.3,8.3,4.6,2.9,9.1,5.4,13.8,8.1,0,1.1-.1,2.3-.4,3.3-7.5-3.6-22.3-11.3-27-18.5l1.2-1.2Z"/>
    <path d="M371.5,147.6c12.9,5.6,22,8,36.4,6.5,1.8.4,3.3.9,5.2.9-14.5,4-28.4,1.7-42-4.1.2-1,.3-2.3.4-3.3Z"/>
    <path d="M727.9,134c1.7,4.5,3.2,6.6,3.6,11.7-.8.6-.3.4-1.5.4.2,1,.3,1,.6,2-1.5,6.3-14.8,9.4-17.9,3l.2-.6c4,.3,6.3,3.2,11.4-.7,1.3-1,2.8-4,3.5-5.5-.7-2.2-2.4-6.6-2-8.5l2.1-1.9Z"/>
    <path d="M339.6,104.5h3.3c-2.7,6.5-3.5,10.3-.9,17.2,1,2.6,3.9,6.5,4,8.3l-.6,1.3-1.2,1.2c-4.3-5.2-2.9-7.5-6.6-11.9-.4-5.3,0-11.1,2-16Z"/>
    <path d="M262.3,136.3c-3.4,2.7-7.1,7.2-6.9,11.8.2,4.2,2.7,5.1,5.4,7.4-6,3.9-8.5-3.9-8-8.6.7-6.4,3.6-9.8,8.2-13.8l1.2,3.1Z"/>
    <path d="M548.7,169c-6.9-1.1-25.4-5-30.6-8.7,8.8,1.9,20.6,3.3,29.7,4.6-1.8.6-1.9.3-3,1.5,1.1,1.6,2.2.8,4,2.6Z"/>
    <path d="M597,74.1c2.3-1.2,5.1-2.2,7.8-3.6-.2,2.7-.4,3,.8,5.4-4.8,1.7-6.9,2.6-11.4,4.8,1.2-2.2,2.6-4.1,2.8-6.5Z"/>
    <path d="M323.8,103.3l-1.2,1.5c.6,2.4,1.3,5,1.2,7.4-1.5.6-.7.4-2.5.2-2.3-1.8-2.1-5-2-7.7.9-.2,3.4-1.1,4.5-1.4Z"/>
    <path class="st1" d="M893.5,671.2c3-.2,9.7-.7,12.1,1.1v1c-2.7.3-10.7,1.1-12.4-1.1l.4-1.1Z"/>
    <path d="M407.9,154.2c3.3-.6,8.4-1.7,11.5-1.7-1.3,1.3-4.4,2.1-6.3,2.6-1.9,0-3.4-.5-5.2-.9Z"/>
    <path d="M447,163.7c3-.8,7.8-2.1,10.6-2.2-1.2,1-7.7,3-9.6,3.7l-1.1-1.5Z"/>
  </g>
  <g>
    <path class="st1" d="M1004,376.8v128.7c-1.6,2-3.3,4-5,5.9-8,9.1-15.7,18.6-23.4,28l-52.4,63.2c-26.7,32.1-52.8,64-81.6,94.2-7.6,7.9-7.8,11.5-19.4,12.4-7,5.5-14.5,14.9-20.7,21.5-26.7,28.6-55.1,56-83.8,82.6l-25.7,24.2c-4.6,4.3-9.4,8.7-13.9,13-2.7,2.6-2.7,7.8-5,11.1-2.5,3.6-6.3,3.2-9.3,5.6-4.8,3.9-7.8,13-14.6,14.3-2.9.6-5.5-1.5-7.7-3.1-10.6,10.9-20.4,28.5-28.7,41.4-6.5,10.2-3.4,16.4-17.5,21-14.9,4.8-29,14.2-42.3,22.2-6.2,3.7-12.8,7.2-18.8,11.4-5,3.5-15.9,16.8-21.7,16.6l-.6-.8c.8-7.6,17.7-22.5,20.7-31.8,3.2-9.9,9.1-21.5,13.3-31.5,4-9.4,8.5-22.3,13.8-30.7,5.5-8.8,19.1-16.7,27.4-23.2,8-6.3,16.3-12.5,24-19.3-6.5-10.2.6-13.9,7.9-20.4,0-6.1.4-7,3.9-12.4,3.8-5.8,9.3-5.1,13.3-10.7,29.2-41,59.6-81.1,91-120.5,2.7-3.3,1.4-5.8,3.2-8.2,6.7-9.2,15.4-17.1,21.9-26.5,3.6-5.1,3.2-13.5,6.6-18.1,1.5-2,6-6.5,7.8-8.4l14.7-15.8,45.8-50c40.1-43.7,80.4-86.7,121.9-129,1.6-1.6,5.7-6,6.8-7.8,2.9-4.6,4.9-10.3,8.9-14.3,1.9-1.9,6.9-3.4,8.6-5,10.4-9.8,20.4-20,30.8-29.9Z"/>
    <path class="st0" d="M963.4,418.3c7.5-10.5,14.6-7.1,22.8.6.3,4.3-.2,7.7-1.1,12-7.8-6.7-12.4-8.9-21.7-12.6Z"/>
    <path class="st26" d="M991.6,423.5c4.8,3.6,8.7,7.9,12.4,12.6v14.7c-2.4-2.7-5.2-5.6-7.8-8.2,1.5-7.4-4.7-14.6-4.6-19.2Z"/>
    <path class="st28" d="M986.2,418.9c2.5,1.8,3.3,2.3,5.5,4.6,0,4.6,6.1,11.8,4.6,19.2-3.5-3.9-7.5-8-11.1-11.8.8-4.2,1.3-7.7,1.1-12Z"/>
    <path class="st35" d="M996.8,466.3c2.7-.2,4.5-.3,7.2-.4v3.5c-7,.3-21.3,2.4-27.2,1.3-2.7-.3-4.9-.5-7.6-.7,1.2-.9,1.9-1.1,2.4-2.5,2.9,0,4.8-.3,7.6-1,5.8.9,11.8.4,17.6-.2Z"/>
    <path class="st39" d="M976.6,499.4c8.9.1,18.4-.8,27.4-1.1v3.2c-10.3,0-20.6,0-31,.1-5.8,0-17,1.1-22.6.3l.4-1.5c9.4.5,16.6-.9,25.7-1.1Z"/>
    <path class="st3" d="M976.6,499.4c8.9.1,18.4-.8,27.4-1.1v2.6c-6.1,0-23.2.5-28.2-.3l.8-1.3Z"/>
    <path class="st29" d="M997.8,401l6.2-7.5v12c-3.8,5-7.5,9.2-12,13.6l-3.5-2.9c6-.5,11.5-10.5,9.4-15.1Z"/>
    <path class="st2" d="M973.5,484.7c8.5-1.7,21.8-2,30.5-2.2v3.1c-10.2.3-19.9.5-30.1.4l-.4-1.3Z"/>
    <path class="st11" d="M997.8,401c2.1,4.7-3.3,14.6-9.4,15.1-1.4-.9-1.5-.8-2.3-2.3.5-1.6,9.8-10.9,11.7-12.9Z"/>
    <path class="st28" d="M972,491.6c7-.7,13.9-1.5,20.9-1.6.7,1.6,1,1.8,2.2,3-7.5.3-14.9-.4-22.7,0l-.4-1.5Z"/>
    <path class="st28" d="M1004,477.7c-3.8.2-16.6,1.2-19.3-.5,2.5-1.8,15.8-2.1,19.3-2.2v2.7Z"/>
    <path class="st39" d="M976.8,470.7c5.9,1.2,20.2-1,27.2-1.3v1.6c-7.2.5-20.5,1.5-27.4,1l.3-1.3Z"/>
    <path class="st40" d="M1004,489.5v3.5h-8.8c-1.2-1.2-1.5-1.4-2.2-3,3.7-.3,7.4-.4,11-.5Z"/>
    <path class="st27" d="M980.5,465c3,1.4,11.5.4,15.1,0l1.2,1.2c-5.8.6-11.8,1.1-17.6.2l1.3-1.5Z"/>
    <path class="st25" d="M940.5,504.4c3.8-4.9,4.6-4.1,10.4-3.8l-.4,1.5c-4.1,1.5-5.6,1.7-9.9,2.3Z"/>
    <path class="st39" d="M986.1,495.8c5.9-.3,11.9-.3,17.9-.3v1.4c-7.1.2-10.9.3-17.9-1.1Z"/>
    <path class="st40" d="M971.6,467.5c3.5-3.6,3.9-3.9,8.9-2.5l-1.3,1.5c-2.8.7-4.7,1-7.6,1Z"/>
    <path class="st27" d="M964.4,484.6c3.1.7,6,.4,9.1,0l.4,1.3c-2.7.2-9.2.9-11.6.6l2.1-2.1Z"/>
    <path class="st40" d="M969.2,470c2.7.2,4.9.4,7.6.7l-.3,1.3c-2.6.5-5.9,1.8-7.8-.2l.4-1.8Z"/>
    <path class="st40" d="M962.3,486.6c-1.8.2-3.7.7-5.1-.2v-.8c2.9-1.6,4-1.5,7.2-1l-2.1,2.1Z"/>
    <path class="st27" d="M995.6,465.1c3-.4,5.4-.5,8.4-.7v1.5c-2.7,0-4.5.1-7.2.4l-1.2-1.2Z"/>
    <path class="st27" d="M962.4,493c2.8-1.2,6.6-1.4,9.6-1.4l.4,1.5c-3.1.2-6.9,0-10.1-.1Z"/>
    <path class="st27" d="M1004,459v2.1c-2.8-.1-5.8-.7-8.6-1.2,3.2-.5,5.4-.7,8.6-.9Z"/>
    <path class="st0" d="M611.4,868.6c-1.3-1.8-4.9-5.8-3.4-7.8,2.1,0,2.8,1.4,5,2.1v-.5c-1-1.4-2.5-2.7-1.8-4.5,2.2-.4,1.3.7,4.2,1.4-.4-1.5-.5-1.3-.4-2.8,4.1.2,11.5,8.6,14,11.8l-.7.9c-2.4-1.7-4.4-3.3-6.9-4.8,3.8,4.6,11.3,11.6,13.9,15l-.2.7c-1.1,0-2.4-.2-3.2-1-3.7-3.9-7.7-7.2-11.8-10.7,1.7,3.1,2.8,5.1,5.4,7.9,2.1,2.2,5,4.4,7.3,6.5v1.2c0,0-.8.9-.8.9-4.6-1-5.6-7.9-14.1-11.7,4,4.9,7.6,11,12.6,14.2-2.6,3.6-4.8,6.7-7.2,10.5-4-4.4-7.8-13-11.7-18.4,2.2,7.2,4.1,11.7,9.5,17.3,1.3,1.3-.1,6-2,7.2-5.6-1.1-4.5-11.9-11.9-11.8,4,4.9,6.9,9.5,10.5,14.6-1.3,1.8-2.7,3.7-4,5.5l-8.2-9.9c-1.7-1.4-1.3-1.5-3.2-1.7-.2,2.7,8.7,9,10,14.2l-.4.8c-3.7-1.1-8.1-11.7-12-12.5-.7,1.1-.4.5-.5,2,1.8,2.3,2.3,3,4.6,4.9,5.2,4.4,6.7,6.8,3.7,13.4l-2.2,4.8c-3.5-5.2-7.7-12-12.3-16.1,1.6,8.3,11.9,12,10.5,19.9-.1.8-1.6,1.5-2.4,1.9-1.6,0-1.5,0-2.9-1,.1,2.6.6,2.7-1.9,4.2-.5,0-1.2,0-1.5-.4-4.7-5.5-8.5-10-14.7-13.9,2.2,2.5,4.7,5.1,6.9,7.6l-.7,1.3c-2.4-1.9-3-2.5-5.8-4,2.6,3.4,5.5,5.4,8,8.4.8,2.1,1,1.7.5,3.4l-1.1.6c-6.9-.6-6.3-4.4-12.4-7.2h-1s-1.1,1.5-1.1,1.5l-1.3,2.1-2.4.7c-.6.9-1.2,1.9-1.8,2.7l-.8.7-1.9,2.5c.6,1.9,2.8,2.6,4.6,5.2l-.2.7c-2.7,0-4.5-1.6-7.1-3.2l-.2.4c1.8,2.8,3.2,3.5,5.8,5.4-2.2-.5-4.3-.9-6.5-1.4.3,1,.8,1.7,1.3,2.6l-.4.6c-2.3,0-6.2-1.5-8.5-2.2,1.6,1.3,3,2.6,4.5,4v.8c-1.5.9-3.3.2-5.5-.2l-.6.7,1.1,1.3-.2.8c-3,2.1-11.3,8.4-14.5,8.8-1.3-2.3.4-4.2-.9-6.4-1.1,0-1.6.1-2.7,0l-.3-1.1c1.3-6,11-27.9,15.2-34.1,1.9-2.8.3.1.5-3.1l1.5-.4c2.1-2.6-.7-.2.3-3l1.6-.2.4-.7c-.6-1.3-.7-1.3-.8-2.7,1.1,0,1.4.2,2.6.5.6-1.7-1.3-1.5-.6-3.7,1.4.3,1.1.4,2.3,0l-1.2-3.9.4-.6c1.4.4,3.2,2.1,4.5,3.1l-4.4-8.1c1.9,1.5,4,2.8,6.1,4.1-2-3.6-2.7-5.2-4.1-9.1,1.8,1.6,3.8,4.4,5.6,5.1.9-1.7-.8-2-.2-3.7,1.4,1.4,2.7,2.5,4.2,3.7-1.5-3-3.6-6.2-5.3-9.1,2.2,1.8,4.8,4.3,7.5,4.9v-.6c-1-2.2-3.2-3.9-3.7-5.3,1.5.5,7,3.4,8.9,4.2-2.5-1.9-5-3.7-7.6-5.5l-.2-.5.6-.5c2.9.2,5.9,1.4,8.6,2.3-3.7-2.7-4.4-3.3-7.3-6.6,3,1.3,7.4,3.8,10.7,5.5-1.4-2.2-4.3-5.7-6-7.9,3.2,2.6,5.6,4.7,9.1,6.8-1.5-2.8-2.8-3.5-4.5-6.7l.2-.6c2.3.9,4,2.6,5.9,4.2-1.7-2.7-4-5.7-5.9-8.2,3.4,2,6.8,4.2,10.2,6.2-1.8-1.9-4-3.7-5-6.1l.4-.5c2.6.4,5.1,2,7.5,3.3-2.6-2.5-5-5-7.5-7.6,5.4,1.6,6.9,2.7,11.4,5.8-1.6-1.7-5.5-4.8-4.7-7.2,2.6-.5,6.2,3.3,8,4.9-1.8-2.8-3.3-4.4-4.3-7.6l.5-.6c2.4.5,5,2.6,7.3,4-1.7-2.2-4.8-4.7-5.1-6.6l.7-.8c3.2,0,3,2.7,6,2.9.2-1-1.8-2.8-2.7-4.8l.5-1,1.3-.2c2.6.7,4.9,3,7.1,4.8Z"/>
    <path class="st11" d="M607.2,892c4,4.9,6.9,9.5,10.5,14.6-1.3,1.8-2.7,3.7-4,5.5l-8.2-9.9.7-.9c3.1,3,4.5,4.3,8,6.9-1.1-4-2.2-11.1-6.4-12.5-1.4-1.8-1.4-1.9-.5-3.7Z"/>
    <path class="st1" d="M583.6,920.9c4.3,2.1,5.6,3.2,8.8,6.6l1.1-.4c1.2,1.5,2.4,3.1,3.8,4.4.3.3.8,1,1,1.4.1,2.6.6,2.7-1.9,4.2v-1.7c-5-4.9-8.5-9.1-12.8-14.4Z"/>
    <path class="st11" d="M593.5,927.1c1.2,1.5,2.4,3.1,3.8,4.4.3.3.8,1,1,1.4.1,2.6.6,2.7-1.9,4.2v-1.7c-.2-3-2.3-5.5-4-7.9l1.1-.4Z"/>
    <path class="st1" d="M588.3,919.3v-.5c.9-1.5.6-1.5,2-2.2,7,3.6,9.6,9.5,12.2,16.6-1.5-2-4.6-5.8-5.8-7.9l-.7,1.3c-1.4-2.2-5.1-6.6-7.6-7.4Z"/>
    <path class="st30" d="M588.3,919.3v-.5c.9-1.5.6-1.5,2-2.2,1.6,2.9,4.3,6.1,6.3,8.7l-.7,1.3c-1.4-2.2-5.1-6.6-7.6-7.4Z"/>
    <path class="st30" d="M577.9,929.7c1.9-.6,1.6-.8,2.2-2.6l.5.5c2.6,3.4,5.5,5.4,8,8.4.8,2.1,1,1.7.5,3.4l-1.1.6-.4-.6c-2.5-1.7-8.5-6.9-9.8-9.7Z"/>
    <path class="st1" d="M577.9,929.7c2.9,1.2,8.5,5.9,9.8,8.7v1c-2.5-1.7-8.5-6.9-9.8-9.7Z"/>
    <path class="st1" d="M607.7,895.7c4.2,1.4,5.3,8.5,6.4,12.5-3.5-2.5-4.9-3.8-8-6.9-1.1-1.7-2.4-4.3-3.4-6.2.1,0,.2.2.4.3l.6.5c3.1,2.4,5.3,5,7.9,7.9-1.2-2.7-2.6-5.5-3.9-8.1Z"/>
    <path class="st11" d="M594.9,911.5c3.9,3,7.6,10.9,12,11.3l.7.4-2.2,4.8c-3.5-5.2-7.7-12-12.3-16.1l1.8-.4Z"/>
    <path class="st1" d="M594.9,911.5l-.4-1.5.5-.6c3.2.4,9.9,10.6,11.9,13.4-4.3-.4-8.1-8.3-12-11.3Z"/>
    <path class="st1" d="M597.8,905.9l1.5-.9c1.8,2.3,2.3,3,4.6,4.9h-2.1c2,2.7,3.9,6.2,5.7,9.2-3.8-3.2-8.6-7.7-10.2-12.6l.5-.6Z"/>
    <path class="st11" d="M597.8,905.9l1.5-.9c1.8,2.3,2.3,3,4.6,4.9h-2.1c-1.5-1.9-2.1-2.4-4-3.9Z"/>
    <path class="st1" d="M588.3,919.3c2.5.8,6.3,5.1,7.6,7.4l1.4,4.8c-1.4-1.3-2.6-2.9-3.8-4.4-2.2-2.7-3.8-4.6-5.2-7.8Z"/>
    <path class="st1" d="M582.1,903.7c7.4,5.7,7.2,17.8-5,14.5-3.5-2.5-5.1-5.1-4-9.4,1.4-5.6,7.2-2.7,8.8-3.1l.2-2Z"/>
    <path class="st1" d="M549.7,942.8c2.2.6,3,1.5,2.8,3.7-1.4,1-1.6.2-3.9.3l1.3,2-.4.6-1.5-.4c-1.3,1.1.6.4-.9,3.7-1.1,1.1-1.3,1.3-2.7,2.3-1.7-.5-1,0-1.9-1.5l.4-.9c1.6-.2,1.1,0,2.4-.8,1.4-4.5,1.6-5.2,4.3-9Z"/>
    <path class="st1" d="M609.8,885.8c3.8,2,8.2,11.3,10.4,15.3-4.1-2.7-9.6-10.4-10.4-15.3Z"/>
    <path class="st1" d="M554.6,935.2l1.9.6c3.1,3.2.9,7.6-3.2,7.6-1.9-1-1.3-.6-2.6-2.6l.7-.6c1.7.5,1.9.5,3.7.7-.3-1-.9-1.5-1.7-2.4l.3-.4h2.3c0,0,.2-.5.2-.5l-1.7-2.4Z"/>
    <path class="st1" d="M617,877.8c5.1,1.6,8.1,7.5,10.2,12-4.4-3-7.1-7.6-10.2-12Z"/>
    <path class="st1" d="M615.3,879.9c4.2,2.5,6.4,8.5,8.2,12.8-3.4-2.1-6.7-9.1-8.2-12.8Z"/>
    <path class="st1" d="M586.1,897.8c4.3,1.6,5,3,6.1,7.4-3.2-1.4-4.6-4.5-6.1-7.4Z"/>
    <path class="st1" d="M585.9,903.4c3.4,2.6,2.8,6.1,2.6,9.8-1.7-2.7-2.1-6.7-2.6-9.8Z"/>
    <path class="st1" d="M564.3,921.9c2.1.4,3.9,2.7,5.2,4.3-3.1.4-4.5-1.6-5.2-4.3Z"/>
    <path class="st1" d="M558.5,928.9c2.8.8,4.1,1.5,6.1,3.6-4,.2-4.2-.3-6.1-3.6Z"/>
    <path class="st1" d="M561.7,925.5c3.1.9,3.7,1.1,5.2,4-3.4-.6-4-.8-5.2-4Z"/>
    <path class="st1" d="M566.9,918.2c2.9.8,3.8,2.4,5.4,4.9-3.6-1.1-4-1.4-5.4-4.9Z"/>
    <path class="st1" d="M592,891.3c2.7,1,3.1,2.8,4.1,5.3-3-1.3-3.5-2.3-4.1-5.3Z"/>
    <path class="st1" d="M589,895.3c2.9.9,3.8,2.6,5.6,5-3.4-1.1-3.8-1.8-5.6-5Z"/>
    <path class="st1" d="M557,932.3c2.6.8,3.4,1.8,5,3.8-3.4-.4-3.4-.8-5-3.8Z"/>
    <path class="st0" d="M973.3,427.3c3.7,1.6,5.2,3.2,7.9,6-6,7.6-12.4,14.3-18.5,21.7l-55.3,65.8c-19,22.2-37.4,45.2-55.8,68-10.6,13.1-21.7,25.2-31.6,38.8l-1,.9c-1,0-1.8,0-2.5-.9-4.5-6.3-3.7-10.6,1.1-16.2,19.5-22.7,39.3-44.9,58.6-67.8l55.3-65.7c14-16.9,27.5-34,41.9-50.6Z"/>
    <path class="st11" d="M759.2,654c4.2,5.1,9.1,10,13.6,14.9,2.6,2.6,6.8,6.6,9.1,9.3,3.6,3.4,7.1,6.8,10.8,10.1,5.1,4.2,10.3,8,15.6,11.9l10.3,6.3c-7.6,8-14.7,15.9-22.6,23.7-5.2-2.5-8.2-4.5-12.5-8.5-4.9-4.8-15.1-12.8-20.5-17.3-6-4.9-10-9.3-14.9-15.3-3.6-3.5-6-7.2-8.8-11.5,6.8-7.9,13.5-15.4,20-23.6Z"/>
    <path class="st0" d="M759.2,654c4.2,5.1,9.1,10,13.6,14.9,2.6,2.6,6.8,6.6,9.1,9.3.4,3.1.3,4.2-.2,7.2.7.8.6.9,1.4,1.4l3.1,3.9h-1.8c0,0-.2-.6-.2-.6-2.5-.4-3.6-2.9-6.2-2.5l-.8,1.3c1.8,2,9.3,7.4,9.4,8.7-4.9-2.2-6.5-4-10.6-7.5l-1,.7c0,1.3,0,1.6.2,2.9-2.4,1.4-.8-1.3-4.3,1.1-2.6,1.8-6.2,8.1-8.2,9.6-6-4.9-10-9.3-14.9-15.3-3.6-3.5-6-7.2-8.8-11.5,6.8-7.9,13.5-15.4,20-23.6Z"/>
    <path class="st11" d="M759.2,654c4.2,5.1,9.1,10,13.6,14.9-4.1-.3-5.1-3-8.7-4.3l-.5.5c.3,1.3.6,2.5,1,3.8-.5,1.3-.6,1.5-1.4,2.7-1.3.4-1.7,0-3-.3.2,1.4,0,.9.8,2.1-.3,0-1,0-1.3,0-2.4,1.9-1.1,2.4-3,4.2,0,3-6.2,10-8.7,11.6-3.6-3.5-6-7.2-8.8-11.5,6.8-7.9,13.5-15.4,20-23.6Z"/>
    <path class="st25" d="M754.3,665.5c1.9,1.8,2.4,3.1,5,2.4l.7-.2c1.5.7,2.2,2.4,3.3,3.9-1.3.4-1.7,0-3-.3.2,1.4,0,.9.8,2.1-.3,0-1,0-1.3,0l-5.5-7.8Z"/>
    <path class="st0" d="M808.3,700.2l10.3,6.3c-7.6,8-14.7,15.9-22.6,23.7-5.2-2.5-8.2-4.5-12.5-8.5,1.4-1.6,1.2-2,2.9-2.4l1.9,1.5c.6-2.4,0-1.8,1.7-2.9l-.9-.6-.2-1.3,3.2-1h0s.4,0,.4,0c-1.3-1.8-3.4-3.3-5.2-4.7,1.3,0,4.4,1.9,5.5,2.7l-.7-2.1c1.2.7,1.8,1,3.1,1.6.2-1.4.2-.7-.9-2.4h.3s1.9,0,1.9,0l.5.4.5-.7c1-1.6,2.9-3.2,4.7-3.8,1.3-.9,3.3-2.5,4.6-3.6l1.6-2Z"/>
    <path class="st27" d="M782,678.2c3.6,3.4,7.1,6.8,10.8,10.1,5.1,4.2,10.3,8,15.6,11.9l-1.6,2c-1.3,1-3.2,2.7-4.6,3.6-.3-.3-1.6-1.6-1.8-1.9-2.8-3.6-14.8-9.1-15.8-13.3h1.8c0,0-3.1-3.9-3.1-3.9-.8-.5-.8-.6-1.4-1.4.5-3,.6-4.1.2-7.2Z"/>
    <path class="st30" d="M786.3,690.7c4,3.8,8.8,7.1,13.3,10.4l.7-.3.3.7c-1.3-2.2-3-3.9-4.8-5.7,2.2,1.6,4.2,3.1,6.4,4.6h.3c-1.2-1.3-4.3-4.2-4.8-5.5,1.3.6,1.4.6,2.4,1.4,2,1.9,4.5,4,6.4,5.9-1.3,1-3.2,2.7-4.6,3.6-.3-.3-1.6-1.6-1.8-1.9-2.8-3.6-14.8-9.1-15.8-13.3h1.8Z"/>
    <path class="st29" d="M782,678.2c3.6,3.4,7.1,6.8,10.8,10.1l.2,1.3c-1.3-1.1-3.3-3-4.8-3.3l.5,1-.3.9c-.8-.5-1-.6-1.9-1,.5,1.4,3.9,4.5,5.4,6.6-1.7,0-6.1-6-8.7-7-.8-.5-.8-.6-1.4-1.4.5-3,.6-4.1.2-7.2Z"/>
    <path class="st38" d="M792.7,688.3c5.1,4.2,10.3,8,15.6,11.9l-1.6,2c-1.9-1.9-4.4-4-6.4-5.9-.7-2.1-5.4-5.2-7.5-6.7l-.2-1.3Z"/>
    <path class="st38" d="M788.6,687.2c1.6,1.5,3.6,3.2,4.6,5.1h0c0,0-.6,0-.6,0l.5-.5-.8.2.7-.4h-1.2c-1.3-1.1-2.4-2-3.3-3.6l.3-.9Z"/>
    <path class="st35" d="M780.3,705.1c-1.4-1.4-2.8-2.7-4.2-4.1.6,0,1.6.2,2.2.3l.4-.3c-1-.9-2.5-1.9-2.7-2.9l2,.8c.3-1.1,0-.6.7-1.4l2.8,1.5c3,2.1,12.1,7.8,13,10.9h-.3c1.1,1.7,1.1,1,.9,2.4-1.3-.6-1.9-.9-3.1-1.6l.7,2.1c-1.1-.8-4.1-2.6-5.5-2.7,1.8,1.4,3.9,2.9,5.2,4.7h-.4c0,.1,0,0,0,0l-3.2,1,.2,1.3c-2.2-2.3-14.7-13.9-15.3-15.4l.4-.2c2.3.6,4.3,2.2,6.3,3.5Z"/>
    <path class="st40" d="M787.2,710.2c-1.2-.6-2.7-1.6-3.1-3,1.1.5,1.1.6,2.2.7-1.2-1.1-2.9-2.5-3.7-3.9,2,.2,4.4,3.2,7.4,4.4l.2-.4c-1.5-1.2-2.2-1.5-3.1-3,2.1,0,5.4,3.4,7.1,4.9,1.1,1.7,1.1,1,.9,2.4-1.3-.6-1.9-.9-3.1-1.6l.7,2.1c-1.1-.8-4.1-2.6-5.5-2.7Z"/>
    <path class="st30" d="M788.8,715.9c-3.1-4.3-5.4-6-9.1-9.8,4.3,2.8,8.2,5.7,12.3,8.8l-3.2,1Z"/>
    <path class="st35" d="M782.1,698.4l-.7-1c.9.1.6,0,1.1.4h.5c5.6,3.5,9.9,6.8,14.3,11.8l-.5.7-.5-.4h-1.9c-.9-3-10-8.8-13-10.8l.6-.6Z"/>
    <path class="st38" d="M782.1,698.4c5,3.3,10.6,6.7,14.3,11.4h-1.9c-.9-3-10-8.8-13-10.8l.6-.6Z"/>
    <path class="st38" d="M982.2,434.4c1.8,1.5,4,3.6,5.8,5.2-12,13-26.2,31.6-38,45.7l-82.7,98.7c-13.3,15.8-27.5,33.8-41,49.1-2.2-1.1-4.3-2.3-6.5-3.5,5.6-5.3,13.5-15.5,18.5-21.7l26.6-32.5,74.2-89.2c13.8-16.6,28.9-35.6,43.1-51.7Z"/>
    <path class="st27" d="M914.6,599.2c-.5,2.5,0,2.1-1.5,3.7h3.7c-.9,1.4-2,2.7-2.3,4.2-1.9,2.1-2.4,2.7-5.3,3.2-.4,2.8-.3,3.1-1.8,5.2-1,.9-2.7,2.6-3.7,3.4-7,.4-12.9.6-19.9.6-4.9,1-13.4.7-18.8,1.2-4.7.4-7,1.3-11.2,2-4.4,1-9.4,1.2-13.8,1.4l3.1-3.7c.7-2.3,2.2-3.9,4.1-5.4,1.1-1.1,2-2.3,2.9-3.5,1.1-2.3,2.4-3.4,4.5-4.7l3.3-3.3c3.6,0,7.5.4,11.1.6,4.1.4,14.8-1.2,19.1-2.2.6.1,1,0,1.6,0l.3-.4-1.4-.7-.4-.7c5-.1,9.5-.1,14.5,0l11.9-.8Z"/>
    <path class="st35" d="M914.6,599.2c-.5,2.5,0,2.1-1.5,3.7h3.7c-.9,1.4-2,2.7-2.3,4.2-1.9,2.1-2.4,2.7-5.3,3.2-4.4-.2-11.4.4-15.8.8-1.2-1.2-1.2-1.1-1.9-2.6-5.6.8-10.8,1.9-16.3,3.1-4.7.5-8.6.5-13.2,0-3.9-.1-8,0-11.9,0,1.1-2.3,2.4-3.4,4.5-4.7l3.3-3.3c3.6,0,7.5.4,11.1.6,4.1.4,14.8-1.2,19.1-2.2.6.1,1,0,1.6,0l.3-.4-1.4-.7-.4-.7c5-.1,9.5-.1,14.5,0l11.9-.8Z"/>
    <path class="st25" d="M891.5,608.5c4.4-1.1,18.6-2.7,23-1.4-1.9,2.1-2.4,2.7-5.3,3.2-4.4-.2-11.4.4-15.8.8-1.2-1.2-1.2-1.1-1.9-2.6Z"/>
    <path class="st5" d="M914.6,599.2c-.5,2.5,0,2.1-1.5,3.7-6.5.2-13.2.5-19.8.7,2.4-4.5,5.1-2.6,9.4-3.5l11.9-.8Z"/>
    <path class="st10" d="M888.2,600.1c5-.1,9.5-.1,14.5,0-4.3,1-7-1-9.4,3.5-1.7.7-21.2,2-24,1.9l-.3-1.4c4.1.4,14.8-1.2,19.1-2.2.6.1,1,0,1.6,0l.3-.4-1.4-.7-.4-.7Z"/>
    <path class="st40" d="M854.6,606.8l3.3-3.3c3.6,0,7.5.4,11.1.6l.3,1.4c-3.4.4-11.7,1.7-14.6,1.3Z"/>
    <path class="st25" d="M877.1,618.7c8.6-.4,21.6-3.9,30.3-3.2-1,.9-2.7,2.6-3.7,3.4-7,.4-12.9.6-19.9.6-2.5-.4-5,.4-6.7-.8Z"/>
    <path class="st28" d="M852.2,619.9c6.5-.8,17.8-.8,24.9-1.1,1.7,1.2,4.2.4,6.7.8-4.9,1-13.4.7-18.8,1.2-4.7.4-7,1.3-11.2,2-.7-1.8-.4-1.9-1.7-2.9Z"/>
    <path class="st40" d="M852.2,619.9c1.3,1,1,1.1,1.7,2.9-4.4,1-9.4,1.2-13.8,1.4l3.1-3.7c2.9-.2,6.1-.4,9-.5Z"/>
    <path class="st40" d="M850.1,611.5c3.9,0,8,0,11.9,0l-.6,1.9c-3.9.3-10.9,1.6-14.2,1.5,1.1-1.1,2-2.3,2.9-3.5Z"/>
    <path class="st28" d="M875.2,611.7c5.5-1.2,10.7-2.3,16.3-3.1.7,1.5.7,1.4,1.9,2.6-5.9.6-11.9,1-17.9,1.5l-.3-1Z"/>
    <path class="st39" d="M862,611.6c4.6.6,8.5.6,13.2,0l.3,1c-5.2.8-8.9,1-14.1.9l.6-1.9Z"/>
    <path class="st35" d="M951.4,522.1c7.6-.9,15.8-1.9,23.4-2.1l-1,3.7c2.3-.2,4.9-.4,7.2-.2.1,2.6.2,1.7-1.1,4.2l-3.7,3.8c-7.3,1.3-15,1.8-22.4,2.3-2.3.3-4.6.6-6.9.9-2.5,1.4-21.1,2.1-24.3,1.9-2.6.8-6.2,2-8.8,1.4l-.2-.8,1.2-1.2c1-1,1.2-1.6,1.9-2.7,1.2-1.4,1.9-2,3.3-3.3.8-.7,1-1.2,1.7-2.1.8-1.1,2.2-2.5,3.1-3.6l6.9.3c3.4-.1,7.1-1.1,10.3-.8,3.5-.7,6-1.2,9.5-1.6Z"/>
    <path class="st9" d="M952.2,531.1c5.9-.9,22.7-3.8,27.7-3.5l-3.7,3.8c-7.3,1.3-15,1.8-22.4,2.3-.5-.6-1.2-1.9-1.6-2.6Z"/>
    <path class="st6" d="M951.4,522.1c7.6-.9,15.8-1.9,23.4-2.1l-1,3.7c-5.5.7-10.6.8-16.2.7-2.9-.7-3.6-.8-6.2-2.3Z"/>
    <path class="st28" d="M942,523.7c3.5-.7,6-1.2,9.5-1.6,2.7,1.5,3.4,1.6,6.2,2.3-2.9,0-13.4.4-15.9-.2l.2-.5Z"/>
    <path class="st40" d="M924.8,524.2l6.9.3c-3.2,3.3-5.4,3-10,3.3.8-1.1,2.2-2.5,3.1-3.6Z"/>
    <path class="st28" d="M946.9,534.6l-.6-.9.3-1.1c1.8-1.2,3.5-1.2,5.6-1.5.4.7,1.1,2,1.6,2.6-2.3.3-4.6.6-6.9.9Z"/>
    <path class="st40" d="M920,530l6.9,1.5c-4,1.3-5.9,1.8-10.3,1.8,1.2-1.4,1.9-2,3.3-3.3Z"/>
    <path class="st25" d="M914.8,536c2.6,0,5.3-.1,7.8.5-2.6.8-6.2,2-8.8,1.4l-.2-.8,1.2-1.2Z"/>
    <path class="st35" d="M968.3,542.1c-2.5,2.5-3.5,3.8-7,4.7l-1.1,4c-2.4,5.4-6.5,5.1-12,5.1-8.9,1.2-21,1.8-29.9,1.5-3.1.7-6.4.7-9.6.8l-.3.6c-2.7,1.2-11.6,2.7-14.6,2.2.3-1.3.9-2,1.6-3.2.8-1.9,2.3-3.2,4-4.2,3.3-3.6,5.7-2.8,10.2-2.2,3.5-.5,16-1.2,17.7-3l-1-.5.3-.6c3.3-.9,8.3-1.2,11.7-1.4,9.9-1.2,20.1-2.9,29.9-4Z"/>
    <path class="st25" d="M968.3,542.1c-2.5,2.5-3.5,3.8-7,4.7-5.5.7-11.4,1.4-16.9,1.8-2.7,0-3.7,0-6.1-1.4v-1c10-1.2,20.3-2.9,30-4Z"/>
    <path class="st8" d="M918.3,557.5c-.3-.6-.2-.2-.1-1.1,4-1.4,24.1-3.2,30-3.9-1.6,1.1-3,1.3-4.1,2.3,2,.8,2.6.7,4.2,1.3-8.9,1.2-21,1.8-29.9,1.5Z"/>
    <path class="st25" d="M948.2,552.5c1.8-.6,9.7-1.4,12.1-1.6-2.4,5.4-6.5,5.1-12,5.1-1.6-.6-2.1-.4-4.2-1.3,1.1-.9,2.6-1.1,4.1-2.3Z"/>
    <path class="st39" d="M927.4,548.6l-1-.5.3-.6c3.3-.9,8.3-1.2,11.7-1.4v1c2.2,1.4,3.2,1.5,5.9,1.4-1.3.6-10.9,1.7-13.2,2l-.4-1.5c-1.5-1-1.2-.6-3.4-.5Z"/>
    <path class="st27" d="M927.4,548.6c2.2-.1,1.9-.5,3.4.5l.4,1.5c-3.6.6-17.9,2-21.2,1.9l-.2-1c3.5-.5,16-1.2,17.7-3Z"/>
    <path class="st40" d="M895.5,558c4.5,0,8.5.2,13,1-2.7,1.2-11.6,2.7-14.6,2.2.3-1.3.9-2,1.6-3.2Z"/>
    <path class="st25" d="M899.5,553.8c3.3-3.6,5.7-2.8,10.2-2.2l.2,1c-3.2.7-7.2,1.9-10.4,1.3Z"/>
    <path class="st27" d="M618,845.9c-1.4-.3-1.4-.2-2.3-1.3.4-2.8,4.3-5.6,6.6-7.7,8.1,8.8,24.9,26.1,31.4,35.4l-3.4,5c-3.9,1.1-5.6-2.8-7.6-5.7-4.1-5.6-19-20.7-24.7-25.8Z"/>
    <path class="st0" d="M618,845.9c1.3-.9,1.7-1.4,3.3-1.3,5.8,3.1,18.9,19.6,23.4,25.4l-2,1.8c-4.1-5.6-19-20.7-24.7-25.8Z"/>
    <path class="st29" d="M644.7,869.9c2.1,2.5,4.1,4.6,5.6,7.4-3.9,1.1-5.6-2.8-7.6-5.7l2-1.8Z"/>
    <path class="st27" d="M747.1,748.3c-1.7-1.7-4.2-3.4-4.9-5.3.8-1,.7-.9,1.8-1.6,0-1-.1-1.3-.3-2.3,2.9.3,2.5,2.2,5,2.2,0-1.3,0-.9-.5-2.2,1.3-2.1,2.1-.6,2.1-1.5.1-1.6-.9-3.1,0-4.7,5.2,1.3,13.1,17.7,23.5,16.6,1.2,2,1.1,1.1.8,3-1.3,1.3-1.5,1.5-3,2.5l-1,.4v.7s-2.8,2.8-2.8,2.8l-1.5.4c-.1.5-.2.8-.2,1.3l-1.9-1.5-2.8.6v-.3c-.9-2.8-9-6.3-12.8-10l-1.5-1.2Z"/>
    <path class="st28" d="M761.6,755.2c-1.7-1.4-5.2-5.5-5-7.7,3.3.6,7.3,4.5,9.7,6.8-1.5.2-3.2.4-4.7,1Z"/>
    <path class="st28" d="M748.6,749.5c5.1-1.7,11.2,7.3,15.6,9.7l-2.8.6v-.3c-.9-2.8-9-6.3-12.8-10Z"/>
    <path class="st11" d="M761.6,755.2c1.4-.5,3.1-.7,4.7-1,1.6.6,2.8,1.1,4.3,1.9l-2.8,2.8c-3-1.2-3.7-1.9-6.2-3.8Z"/>
    <path class="st29" d="M773.7,749.5c1.2,2,1.1,1.1.8,3-1.3,1.3-1.5,1.5-3,2.5-1.7-1.1-2.3-1.3-2.2-3.2,1.3-1.5,2.5-1.6,4.5-2.3Z"/>
    <path class="st35" d="M876.8,581.8l8.2,1.2c11.6,0,22.5-.2,34.1-.5-1.8,1.6-1.6.9-1.8,2.7l.6,1.3h-3.5s1.7,1.5,1.7,1.5c1.9,0,3.8-.1,5.5.5-4.7,1.5-30.9,2.4-36.5,1.9-5-.1-12.2,2.6-16.2,1.1l-.4-.9.9-1.8c1.3-1.9,1.9-2.4,3.7-3.9l3.7-3.1Z"/>
    <path class="st7" d="M884.9,583c11.6,0,22.5-.2,34.1-.5-1.8,1.6-1.6.9-1.8,2.7l.6,1.3h-3.5c-10.1-.5-20.6-1.7-30.4-2l1-1.5Z"/>
    <path class="st28" d="M916,588c1.9,0,3.8-.1,5.5.5-4.7,1.5-30.9,2.4-36.5,1.9-1.4-.3-2.9-.8-4.3-1.2,11.3.2,23.8-.9,35.3-1.2Z"/>
    <path class="st40" d="M869.4,588.8c3.8,0,7.5.2,11.3.3,1.4.4,2.9.9,4.3,1.2-5-.1-12.2,2.6-16.2,1.1l-.4-.9.9-1.8Z"/>
    <path class="st40" d="M876.8,581.8l8.2,1.2-1,1.5c-3.6.3-7.3.8-10.9.4l3.7-3.1Z"/>
    <path class="st38" d="M782.3,665l1.5-.2c7.4,10.6,40.6,30.4,44,38.3l-.2.9c-7.5,4-31.3-17.5-36.8-23.5,3.4-5.7-5.7-9.6-8.5-15.5Z"/>
    <path class="st35" d="M740.1,744.3c2,2.7,3.3,5,7,4l1.5,1.2c3.8,3.7,11.9,7.2,12.9,10v.3c-.7,1.1-1.3,2-1.6,3.3-4.8-.9-9.8-2-14.6-3h-2.4s-17.4,0-17.4,0c1.4-1.4,2.6-2.7,3.9-4.2l1.7-2.4,1.3-1.6c2.1-4.1,3.9-5.1,7.7-7.5Z"/>
    <path class="st28" d="M752.1,757.5c2.2.5,7.4,1.8,9.4,2v.3c-.7,1.1-1.3,2-1.6,3.3-4.8-.9-9.8-2-14.6-3,2.4-3.1,2.9-2.6,6.8-2.6Z"/>
    <path class="st27" d="M729.5,755.7c3.4.6,11.6.7,12.7,1l-1.1,1.8c.6,1.3.2.7,1.9,1.4h-17.4c1.4-1.4,2.6-2.7,3.9-4.2Z"/>
    <path class="st27" d="M732.5,751.8c4.4-.7,6.2-1.1,10.8-1.4,1.8,3.4,1.3,3.1,5.4,3.5-6.1.1-11.4.2-17.4-.6l1.3-1.6Z"/>
    <path class="st39" d="M742.2,756.8c2.4.1,8,.1,10,.7-3.9,0-4.4-.5-6.8,2.6h-2.4c-1.7-.8-1.2-.2-1.9-1.5l1.1-1.8Z"/>
    <path class="st39" d="M743.2,750.4c3,0,5.4.7,7.4,3l-.3.5h-1.8c-4.1-.4-3.6,0-5.4-3.5Z"/>
    <path class="st0" d="M626.4,824.7c.6-1.7.9-3.1,2.1-4.4,1.1.3,2.9,4.5,4.2,6.1,2.4,3,5,5.5,7.7,8.3l9.6,9.4.6.4c2.8,4,14.8,16.5,15,18.6l-.7.5c-2.1-.9-17.5-15.5-20.6-18-1.8,1.3-1.2,1.3-3,1.3-4.9-5.1-12.2-11.1-16-15.4-.5-3-.1-4,1.2-6.8Z"/>
    <path class="st11" d="M636.2,838c6.6,2.7,4.1,6.1,13.7,6.1l.6.4c2.8,4,14.8,16.5,15,18.6l-.7.5c-2.1-.9-17.5-15.5-20.6-18-2.7-2.3-5.7-4.7-7.9-7.5Z"/>
    <path class="st27" d="M626.4,824.7c2.3,4.4,6.3,9.9,9.8,13.3,2.2,2.8,5.2,5.2,7.9,7.5-1.8,1.3-1.2,1.3-3,1.3-4.9-5.1-12.2-11.1-16-15.4-.5-3-.1-4,1.2-6.8Z"/>
    <path class="st0" d="M790.8,680.5c-9.2-8-29.4-24.4-30.5-36.5l.5-.4c1.8.9,4.9,4.7,6.4,6.4l2.8-1.5,1-.3c3.1,3.3,12.2,12.4,13,16.7l-1.5.2c2.7,5.9,11.9,9.8,8.5,15.5Z"/>
    <path class="st27" d="M770.9,648.1c3.1,3.3,12.2,12.4,13,16.7l-1.5.2c-2.5-3.7-11.3-10.7-15.2-15.1l2.8-1.5,1-.3Z"/>
    <path class="st27" d="M686.9,802.5c7.6.6,21,2.1,28.2,2,1.8.1,3.1,0,4.4,1l-.2.8c-3.7,2.3-7.5,2-11.6,1.6-7.2.2-20.2-.8-26.4.7,8.9,1.5,16.9,1.4,25.8,1.9,2.1,0,3.7-.3,5.5.7l.2.7c-2.4,1.9-5.1,2.1-7.9,2.1h-3.1c-5.1,0-19.3-1.1-22.5,1.2l-2.3-.5c3.1-4.4,6.4-8.2,9.8-12.3Z"/>
    <path class="st29" d="M707.3,810.5c2.1,0,3.7-.3,5.5.7l.2.7c-2.4,1.9-5.1,2.1-7.9,2.1h-3.1s.8-2,.8-2c1.3-1.3,2.6-1.2,4.5-1.5Z"/>
    <path class="st11" d="M715.1,804.5c1.8.1,3.1,0,4.4,1l-.2.8c-3.7,2.3-7.5,2-11.6,1.6,2.5-2.3,4-2.7,7.3-3.4Z"/>
    <path class="st0" d="M757.7,704l.6,2c.6,2.8,1.4,4.4.1,6.9-9.4-7.4-16.8-14-23.7-23.7-.8-1.1-.9-1.2-1.5-2.5l.5-.4,1.6.3c0-1,.2-1.8.3-2.8,1.6.3,3,2.3,4.4,3.8"/>
    <path class="st11" d="M734.7,689.1c-.8-1.1-.9-1.2-1.5-2.5l.5-.4,1.6.3c0-1,.2-1.8.3-2.8,1.6.3,3,2.3,4.4,3.8-2.3,1.1-2.9,1.7-5.4,1.6Z"/>
    <path class="st25" d="M757.7,704c4.3,2.9,17.5,14.1,21.2,17.7,1.1.9,2.5,2,3.5,3-2.3,1.9-3.3,3.7-5.1,6l-1.7-1.4c-.9-1.3-9.2-9.2-11.2-11.4-2.1-1.6-4-3.4-6-5.1,1.2-2.5.5-4.1-.1-6.9l-.6-2Z"/>
    <path class="st11" d="M758.2,706c3.6,3.1,6.8,7,6.1,12-2.1-1.6-4-3.4-6-5.1,1.2-2.5.5-4.1-.1-6.9Z"/>
    <path class="st38" d="M778.9,721.7c1.1.9,2.5,2,3.5,3-2.3,1.9-3.3,3.7-5.1,6l-1.7-1.4c.7-2.5,1.8-5.6,3.3-7.7Z"/>
    <path class="st4" d="M922.6,590.9c2.2-.2,2.7-.7,4.3,0-.4,1.6-2.6,3.2-3.9,4.4-3,.2-6.1.5-9.1.7-5.2,1.1-16.8.6-22.6,1-10.5.8-20.7,2-31.2,3.2,1.3-1.4,2.7-2.9,4-4.3,4.3,0,11,.8,14.7.5,14.5-1.2,29.4-3.5,43.9-5.6Z"/>
    <path class="st25" d="M922.6,590.9c2.2-.2,2.7-.7,4.3,0-.4,1.6-2.6,3.2-3.9,4.4-3,.2-6.1.5-9.1.7,3.3-2.3,6,0,8.9-1.9.7-1.6.5-1.1-.2-3.3Z"/>
    <path class="st18" d="M718.3,768.5c9.5.5,27.7.9,36.4,2.4-.5,2.3-2.5,3.7-4.3,5.2-1.7-1.5-2.9-2.8-5.2-3.1-11.2.3-20.1.8-31.6.5,1.8-1.7,3.1-3.2,4.7-5Z"/>
    <path class="st29" d="M745.2,773l-2.4-.6v-.4c2.7-1.2,8.8-1.2,11.9-1.2-.5,2.3-2.5,3.7-4.3,5.2-1.7-1.5-2.9-2.8-5.2-3.1Z"/>
    <path class="st27" d="M702.1,785.8c6.5.8,25.5.9,29.4,2.1,2.7-.4,5.3-.9,8-1.1l-4.2,3.8c-3.3,0-7.6-.2-10.8,0-2.8.9-23.2.7-26.8,0l4.5-4.8Z"/>
    <path class="st29" d="M731.5,787.9c2.7-.4,5.3-.9,8-1.1l-4.2,3.8c-3.3,0-7.6-.2-10.8,0,1.6-1.2,4.2-1.9,6.1-2.5l.9-.2Z"/>
    <path class="st39" d="M724.4,790.5c-1.8,0-3.3.3-4.3-1.2l.7-.8c4.6-1.5,5-1.1,9.8-.5-2,.6-4.6,1.3-6.1,2.5Z"/>
    <path class="st0" d="M632.8,822.9c11.3,8.8,20.7,17.9,29.8,28.9,1.7,2.1,6.2,5.3,6.7,7.8-.9,1.3-.3,1-1.5,1.4-6-7.6-8.9-11.6-17-17.2l-.3.6-.6-.4-9.6-9.4.8-.3c-3.2-3.9-5.8-7.1-8.3-11.5Z"/>
    <path class="st25" d="M640.4,834.7l.8-.3c3,3,6.6,6.7,9.7,9.5l-.3.6-.6-.4-9.6-9.4Z"/>
    <path class="st25" d="M976.7,512.9c3.9-.7,14-1.6,17.9-1.6-1.3,1.2-2.9,2.7-4.2,3.8-3.4.3-9.3.6-12.3,1.1-5.7.3-23.3,1-28.1,1.9-1-.5-2.2-1.1-3.2-1.7,6.4-1.6,23.1-3.3,29.8-3.6Z"/>
    <path class="st17" d="M946.9,516.5c6.4-1.6,23.1-3.3,29.8-3.6-2,1.7-10.8,1.8-14.2,2.4v.5c4.2,1.5,10.5-1.3,15.6.4-5.7.3-23.3,1-28.1,1.9-1-.5-2.2-1.1-3.2-1.7Z"/>
    <path class="st27" d="M724.2,761.5c7.4,0,19.2-.1,25.9,2.5-2,1-4.7,2.1-6.1,2.9-7.6.5-16.8.3-24.5.1,1.6-1.7,3.2-3.7,4.7-5.5Z"/>
    <path class="st27" d="M708.3,780c8.3-.3,19.4,1,27.8,1.5l-.2.3v2.9c-3.3-.2-6.7-.3-10-.4-7.4.3-13.7.1-21.1-.5l3.4-3.9Z"/>
    <path class="st40" d="M726,784.4c3.3-2,6.3-2.2,10-2.6v2.9c-3.3-.2-6.7-.3-10-.4Z"/>
    <path class="st25" d="M855.1,652.5c5-.2,13.5-.8,18.1.5l.4.7c-3.2,2.7-10.6,1.9-14.8,1.8-5.6-.2-11.7,0-17.3.2h-.7c-2.5.4-3.1.7-4.6-.6l.3.7c-.5-.1-.2,0-.7-.6,1.1-1.1,1.9-1.2,3.4-1.7l.8-.2c3.1-.9,6.5-.6,9.8-.6,1.7,0,3.6-.1,5.3-.1Z"/>
    <path class="st28" d="M849.8,652.6c1.7,0,3.6-.1,5.3-.1-.9.3-6.1,1.8-6.2,1.9,2.5-.2,7.5.3,9.9,1-5.6-.2-11.7,0-17.3.2h-.7c-2.5.4-3.1.7-4.6-.6l.3.7c-.5-.1-.2,0-.7-.6,1.1-1.1,1.9-1.2,3.4-1.7l.8-.2c3.1-.9,6.5-.6,9.8-.6Z"/>
    <path class="st39" d="M841.5,655.6h-.7c-2.5.4-3.1.7-4.6-.6l.3.7c-.5-.1-.2,0-.7-.6,1.1-1.1,1.9-1.2,3.4-1.7l.8-.2c3.1-.9,6.5-.6,9.8-.6-2.8.6-5.7,0-7.9.9-.4,1.2-.4.8-.4,2.1Z"/>
    <path class="st40" d="M955.1,509.2c6.3-1,40.2-6.3,45-4.1-3.7,4.7-35,3.5-42.9,5.1l-2.1-1Z"/>
    <path class="st14" d="M862.8,667.5c-1.2,1.4-2.4,3.1-4.1,3.5-7.1,1.2-22.7.4-30.4.6.3-1.6,1-2.1,2.2-3.3,5.9.3,13.1-.3,19.3-.3,4.2-.2,8.7-.5,12.9-.6Z"/>
    <path class="st38" d="M862.8,667.5c-1.2,1.4-2.4,3.1-4.1,3.5-4.2,0-6.2.6-8.8-3,4.2-.2,8.7-.5,12.9-.6Z"/>
    <path class="st39" d="M677.1,814.8l2.3.5c6.1,1,11.3,1.4,17.5,1.7,3.6-.1,7.3-.2,10.9-.4-1.4,1-3.1,2.4-4.5,3.3-2.2.4-26.8-.4-30.4-.4,1.3-1.6,2.8-3.1,4.2-4.7Z"/>
    <path class="st11" d="M696.9,817c3.6-.1,7.3-.2,10.9-.4-1.4,1-3.1,2.4-4.5,3.3-3.6-.4-3.8-.4-6.4-2.9Z"/>
    <path class="st11" d="M782.3,724.7c3.7,3,7.1,5.9,10.7,9.1-1.3,1.6-2.8,3.7-4.2,5.1-4.3-2.8-7.6-4.9-11.6-8.2,1.7-2.4,2.8-4.1,5.1-6Z"/>
    <path class="st38" d="M870.5,637.5c4.6-.5,13-1.8,17.1-.3l.2.7c-3.8,3.1-14.3,2.2-19.5,2-1.7.4-22.5,0-25.5-.1,4.3-1.2,23-2.6,27.6-2.4Z"/>
    <path class="st28" d="M842.8,639.9c4.3-1.2,23-2.6,27.6-2.4-2,1.1-7.7,1.3-10.3,1.7,1.6,0,7.3,0,8.2.8-1.7.4-22.5,0-25.5-.1Z"/>
    <path class="st39" d="M668.7,824.3c.5-.6,1.6-1.8,2.3-2,4.3-1,21.4-.8,24.9.3,2.3-.1,2.1-.5,3.9.4,0,1.7-1.3,2.1-2.8,2.8-2.5.4-23.9-.8-27.9-1l-.3-.6Z"/>
    <path class="st11" d="M695.9,822.7c2.3-.1,2.1-.5,3.9.4,0,1.7-1.3,2.1-2.8,2.8-1.8-.1-3.6,0-4.9-.9,1-1.4,2.1-1.5,3.9-2.3Z"/>
    <path class="st27" d="M805.4,669.2c2.5-.7,21.6-.8,25.2-.8-1.2,1.2-2,1.7-2.2,3.3-3.3,1-12,.9-15.7.8-2.8.1-8,.8-10.1-.7.8-1.7,1.1-1.4,2.9-2.6Z"/>
    <path class="st40" d="M805.4,669.2c2.9.3,7.6,0,9.4,1.6-.7,1.2-.8,1.1-2.2,1.6-2.8.1-8,.8-10.1-.7.8-1.7,1.1-1.4,2.9-2.6Z"/>
    <path class="st13" d="M837.2,660.7c5.2-.1,27.4-2,30.4-.3l.2.7c-2.7,2.8-26.9,2.2-32.7,2.6.5-.9,1.5-2.1,2.1-3Z"/>
    <path class="st20" d="M716.5,796.9c-3.9.2-20.5,1.4-21.7-2.7.8-1.5,1-1.9,2.3-3,1.2-.1,1-.1,1.9.4,4.6,2.5,17.5,2.2,23.5,2.4-2.5,1.9-3.9,1.6-6.1,3Z"/>
    <path class="st15" d="M947.8,563.3c-12.1.8-26.8,1.8-38.9,1.1l-.2-.6c3.3-.9,8.7-1.1,12.4-1.5,7.8-.8,15.6-1.4,23.3-2.3.2,2.1-.1,1.7,1,2.9l2.4.5Z"/>
    <path class="st11" d="M792,609.4c4.4,3.1,12.1,20.5,15.5,25.7,2.1,3.2,6.8,9,7.2,12.6-.5-.2-.8-.3-1.2-.6-4.1-2.3-19.9-32.2-21.5-37.7Z"/>
    <path class="st40" d="M869.1,624.6c6-.5,24.8-2.3,30.1-1.7l.4.5c-.9,1.7-.9,1.7-2.3,2.9-4,.8-22.4-.3-27.3-.3-.7-.5-.4-.3-.9-1.4Z"/>
    <path class="st11" d="M771.8,631.3c3.4,2.4,11.8,18.8,15,23.1,3.4,4.6,7.6,8.7,11.1,13.3-4-1.4-6.7-5.4-9.4-8.6-7.1-8.8-13.7-16.6-16.7-27.7Z"/>
    <path class="st39" d="M920,568.5l5.7-.5c-.3.9-.8,2-1,2.9h3.9c-7.5,1.3-25.7,1.2-33.6.9l1-.9c1.7,0,7.3-.1,8.8-.5,7.8-1.8,7.4-2.4,15.3-1.9Z"/>
    <path class="st28" d="M920,568.5l5.7-.5c-.3.9-.8,2-1,2.9-1.2,0-1.7,0-2.9-.2-1.3-.9-1.2-.8-1.8-2.2Z"/>
    <path class="st16" d="M909.5,575.5c5.2,0,12.9-1.1,17.1-.7-1.8,1.3-2.9,1.9-4.2,3.7-2.2.2-4.7.5-6.9.5-2.8.4-4.4.5-7.2.6l-.8-.2c-.8-1.1-4-2.5-5.6-3.4,2.9-.3,4.6-.4,7.5-.5Z"/>
    <path class="st39" d="M902,576.1c2.9-.3,4.6-.4,7.5-.5-.2,1.6-.3.8.9,2.5,2.2,1.2,2.8.9,5.2,1-2.8.4-4.4.5-7.2.6l-.8-.2c-.8-1.1-4-2.5-5.6-3.4Z"/>
    <path class="st19" d="M925.7,568c4.2-.2,18.3-2.2,20.7-1-.3,4.8-14.2,4-17.8,4.1h-3.9c.2-1.1.6-2.1,1-3Z"/>
    <path class="st28" d="M761.4,736.7c1.2,1.5,2.4,3.1,4.3,3.5,1.9.4,9.5,5,10.4,5.2,2,1.3,2,.8,2.7,2.6-1.7,2.4-3.9,1-5.8-.4-1.1-.9-3.3-1.5-4.8-2.2-4.2-2-6.2-4.3-9.4-7.5l2.6-1.2Z"/>
    <path class="st11" d="M776.1,745.4c2,1.3,2,.8,2.7,2.6-1.7,2.4-3.9,1-5.8-.4,1-.9,2-1.5,3.1-2.2Z"/>
    <path class="st39" d="M776.5,742.9c-7.1-3.1-14.7-7.4-17.9-14.9,1.8,1.3,2.8,3,4.2,4.8,6.1.5,10.8,4.1,15.8,7.5l-2.1,2.6Z"/>
    <path class="st11" d="M717.3,711.8c.2.2,20.5,27.6,20.9,28.2-8-4.9-18.8-18.9-20.9-28.2Z"/>
    <path class="st12" d="M857.5,645.1c4.4-.3,20.9-1.7,23.7-.2-2.3,4.3-17.7,2.4-22.8,2.9l-1-2.6Z"/>
    <path class="st0" d="M789.2,612.8c2.7,1.6,14.4,23.9,16.4,27.4-6.8-4.2-14.7-19.7-16.4-27.4Z"/>
    <path class="st27" d="M709.7,778.4c.3-.4,1.7-2.1,1.9-2.3,3.1-2,15.7-.8,19-.2-.8.9-2.1,2.2-2.8,3.1-6.2.2-12-.2-18.2-.6Z"/>
    <path class="st38" d="M874.8,630.6c3.9-.2,16.6-1.8,19-.3-1.4,4.7-21,2.4-25.6,2.2v-.4c1.3-.9,3.7-.8,5.7-1.3l.9-.2Z"/>
    <path class="st11" d="M720.4,709.4c1.8,1.3,18.6,23.7,21.5,27.4-7.6-2.3-18.5-20.3-21.5-27.4Z"/>
    <path class="st0" d="M775.9,628.4c3.3,2.9,13.3,19.8,14.7,24.3-6.3-2.6-12.8-18.2-14.7-24.3Z"/>
    <path class="st0" d="M800.5,642.4c-8.6-10-12.2-16.2-15.4-28.7,4.8,9.8,10.1,17.8,16.3,26.6l-.9,2.1Z"/>
    <path class="st11" d="M697,740.4c1,1,18.2,25.7,18.5,26.5-6.9-1.8-16.6-19.8-18.5-26.5Z"/>
    <path class="st11" d="M726.8,701.3c3.3,2.8,17.7,26.1,18.2,31.2-4.7-5.8-16-24.2-18.2-31.2Z"/>
    <path class="st0" d="M781.7,618.1c4.4,6.3,9.4,15.8,13.8,22.8l-2,1c-6.3-6.8-9.9-14.9-11.9-23.8Z"/>
    <path class="st21" d="M668.7,824.3l.3.6v1.6c2.1,2.1,6.7,1.8,9.6,1.7l6.2-.2-1.9.9-.2.9,1,1.1-20.9-.4c2-1.6,4.2-4.3,5.9-6.2Z"/>
    <path class="st39" d="M805.4,676.5c6.1-.9,17.2-.3,23.6,0l.2,1.5c-7,.2-12.1.3-19,1.8-2.3-.1-4.3-.7-5.5-2.8l.7-.5Z"/>
    <path class="st28" d="M810.2,679.8c-2.3-.1-4.3-.7-5.5-2.8l.7-.5c1.9,0,5.1-.2,6.3.8-.4,1.4-.5,1.4-1.5,2.5Z"/>
    <path class="st11" d="M709.9,722.4c1.6,2,3.4,5.4,5.4,8,4.7,6,11.3,12.6,14.8,19.2-7-3-18.3-19.8-20.2-27.2Z"/>
    <path class="st27" d="M688.7,800.8c1.3-1.7,2.3-3.3,4-4.6,4.9,3.7,6.6,2.2,12.8,3.4l4,1v.7c1.3.2,2.4.3,3.8.6-4.6.4-20.2-.4-24.5-1.2Z"/>
    <path class="st28" d="M705.4,799.7l4,1v.7c-1.6.1-3.6.5-4.6-.5l.7-1.2Z"/>
    <path class="st38" d="M926.6,574.8c4.9-.3,10.3-.7,15.2-.8-1.6,1.5-2.8,2.8-4.5,4.1-4.2.5-10.5.5-14.9.4,1.3-1.8,2.4-2.4,4.2-3.7Z"/>
    <path class="st11" d="M724,703.9c2.2,2.6,16,24.6,17.2,27.2-6.2-4.9-15.9-18.9-17.2-27.2Z"/>
    <path class="st11" d="M704.5,730.9c1.5,1.5,4.6,6.1,6.2,8.1,4.3,5.6,9.6,11.2,13.4,17.1-6.3-2.5-18.1-18.3-19.6-25.2Z"/>
    <path class="st11" d="M769,634.9c5.1,10,11.8,16.9,16.6,25.7-7-3.5-15.7-17.8-16.6-25.7Z"/>
    <path class="st11" d="M707.5,727.4c.8.6,18.1,23.3,19.6,25.6-6.6-2.9-17.8-18.6-19.6-25.6Z"/>
    <path class="st0" d="M779,623.9c2.5,2.6,13.1,20.3,13.9,23.8-5.3-1.2-12.7-18.7-13.9-23.8Z"/>
    <path class="st11" d="M732.1,696.8c5.5,3.8,16.7,24.3,20.4,30.8-4.2-2.5-17.6-25.6-20.4-30.8Z"/>
    <path class="st11" d="M694.3,743.3c1.2,1.8,3.7,6.9,5.8,9.9,3,4.3,10.1,12.9,12.1,16.8-7.3-2.7-16.7-19.2-17.9-26.7Z"/>
    <path class="st24" d="M931.6,541.5c5.6-1.7,17.2-3.6,23.2-4,1.1,2.2.7,1.3,3.5,2.7l-22.6,2c-1.3-.1-2.8-.5-4.1-.7Z"/>
    <path class="st28" d="M832,646c2.7,0,5.6.5,8.6.4,5.7-.2,11.3-.8,17-1.3l1,2.6c-5.3,0-10.1,0-15.5.2-3.1.1-10.6,1-13.1.9,1.2-1.2,1.4-1.2,2.1-2.8Z"/>
    <path class="st11" d="M715.3,717.3c-.2-.1,20.1,24.9,20.7,25.9-7.8-4.2-17.5-17.1-20.7-25.9Z"/>
    <path class="st11" d="M685.4,756.9c2.3,2,16,20.2,17.9,23.3-6.6-2.1-15.8-16.8-17.9-23.3Z"/>
    <path class="st11" d="M683.3,760.3c1.9,1.5,14.6,20.4,16.7,23.4-6.9-1.8-14.5-17.2-16.7-23.4Z"/>
    <path class="st11" d="M676.9,767.4c2.7,2.7,14.3,20.1,16.6,23.8-6.7-2.8-14.7-17-16.6-23.8Z"/>
    <path class="st11" d="M680.4,762.9c1.3,1.1,14.2,21.4,16.6,24.9-7.4-2.4-14.4-18-16.6-24.9Z"/>
    <path class="st11" d="M655.8,795.3c3.3,2.6,13.4,18.9,15.1,23.3-5.6-3.1-13-17.1-15.1-23.3Z"/>
    <path class="st27" d="M830.5,660.5c2.7-.1,4-.3,6.7.2-.6.9-1.6,2.1-2.1,3-3.2,1.1-16.7,2-20.1,1.8,1.9-1,1.9-1.1,3.1-2.9,2,0,6.1,1,8.2,1.5l4.2-3.5Z"/>
    <path class="st11" d="M671.5,774.5c3.8,5.6,13,18.6,15.8,23.8-5.8-2.1-15.1-17.8-15.8-23.8Z"/>
    <path class="st27" d="M890.3,576.5c.7-.2,10.4-.4,11.7-.5,1.6,1,4.8,2.3,5.6,3.4l.8.2c-3.3.8-14.7-.3-18.1-1.1v-2Z"/>
    <path class="st23" d="M973.9,535.2c-5.3,4.9-8.2,4.4-15.6,5-2.8-1.3-2.3-.4-3.5-2.7,5.5-.9,13.5-1.9,19.1-2.3Z"/>
    <path class="st11" d="M668.5,777.9c1.1,1,15.4,22.9,16,24.7-5.4-1.6-14.5-19.1-16-24.7Z"/>
    <path class="st38" d="M828.8,688.9l14.7-.6-4,4.1-10.8.2v-3.7Z"/>
    <path class="st0" d="M794.9,604.2c3.6,4.7,9.9,14.3,13,19.3l-.5.4h-2.1c0,0-1.2-.2-1.2-.2-3.5-7.8-5.8-9.2-9.3-19.6Z"/>
    <path class="st11" d="M713.4,721.4c1.6,1.8,2.9,3.7,4.3,5.6,4.9,6.7,10.7,12.7,15.3,19.6-5-1.2-18.2-19.9-19.6-25.2Z"/>
    <path class="st25" d="M750.1,764c2.6.7,3.6,1,6.3,1.1,2-.5,1.2-.7,2.8.1,1.1,4.3-3.1,5-6.3,3.2-1.3-.6-7-1.2-8.9-1.5,1.5-.8,4.2-1.8,6.1-2.9Z"/>
    <path class="st11" d="M756.4,765c2-.5,1.2-.7,2.8.1,1.1,4.3-3.1,5-6.3,3.2.7-1.1,2.5-2.4,3.5-3.3Z"/>
    <path class="st11" d="M700,737.9c.2.2,17.8,24.3,18.3,25.3-5.9-1.7-16.3-19.6-18.3-25.3Z"/>
    <path class="st11" d="M674.2,772.8c2.1,1.4,14.7,19.1,17.1,22.3-6.9-2.5-14.2-15.9-17.1-22.3Z"/>
    <path class="st28" d="M829.1,637h1c2.7,0,9.9-.3,11.5,1.3-1.1,1.3-1.4,1.1-3.2,1.7-4.4.5-8.7,1.1-13.1,1.8,1.3-1.5,2.6-3.2,3.8-4.8Z"/>
    <path class="st11" d="M692.5,750.7c.8.5,15.8,21.2,16.7,22.9-6-1.7-14.9-17.1-16.7-22.9Z"/>
    <path class="st38" d="M829,676.5c9-.2,18-.7,26.9-.4-8.8,3.2-17.5,2.5-26.7,2l-.2-1.5Z"/>
    <path class="st38" d="M832.9,682.1c5.9-.4,12-.7,17.9-1.2l-3.4,3.7h-6.9c-2.4-.2-3.1.4-6,0-1.5-1.2-1-.5-1.6-2.4Z"/>
    <path class="st11" d="M729.3,698.8c3.8,3,15.7,23.3,17.8,28.3-4.9-4.3-14.9-21.9-17.8-28.3Z"/>
    <path class="st11" d="M648.6,804.9c1.3,1.4,13,22.6,13.4,24-4.8-1.8-12.4-18.5-13.4-24Z"/>
    <path class="st38" d="M974.9,520c4.6-.6,8.5-.9,13.1-1.3-2.4,2.2-3.8,3.8-7,4.7-2.3-.2-4.9,0-7.2.2l1-3.7Z"/>
    <path class="st11" d="M658.5,792.4c1.4,1.3,14.9,20.4,15.6,22.1-6-3.4-13.8-15.6-15.6-22.1Z"/>
    <path class="st11" d="M702,734.4c1.1,1.2,4.9,7.1,6.3,9,3.9,5.2,9.7,11,12.8,16.4-5.9-2.5-17.1-19.2-19.1-25.4Z"/>
    <path class="st29" d="M795.6,640.8c4,4.7,10.1,11.7,13.1,16.8-8.8-6-8.7-9-15.1-15.8l2-1Z"/>
    <path class="st39" d="M660.6,834.7c6.1-.9,16.1-1.8,22-1.3-1.6,1.1-1.9,1-2.6,2.5-5.3.6-14.2-.2-19.4-1.2Z"/>
    <path class="st11" d="M665.7,783.8c4.3,2.9,13.3,16.7,14.9,21.7-4.6-4-12.1-16.1-14.9-21.7Z"/>
    <path class="st11" d="M660.8,788.3c.6.4,15,20.7,16.1,22.4-5.4-2.1-14.5-16.5-16.1-22.4Z"/>
    <path class="st11" d="M645.9,809.4c2,2.5,10,17.6,12.1,21.3-5.3-3.7-11.8-14.8-12.1-21.3Z"/>
    <path class="st0" d="M528.4,970.9c1.2,1.2.8.5,1.3,2.1-1.4,4.1-7.8,8.8-11.2,11.6l-.3.2-.5-.2c1.4-2.9,8.5-11.2,10.7-13.7Z"/>
    <path class="st0" d="M817.4,579.8c2.7,1.6,10,11.7,10.5,14.9-4.7.5-9.2-11.1-10.5-14.9Z"/>
    <path class="st0" d="M833.9,562.8c3.3,2.1,9.6,10.3,9.9,14.5-5-1.2-8.4-10-9.9-14.5Z"/>
    <path class="st40" d="M822.5,645.6c3.3,0,6.2.1,9.5.3-.7,1.6-.9,1.6-2.1,2.8-3.8.6-7.9,1.1-11.7,1.5l4.4-4.7Z"/>
    <path class="st38" d="M924.7,582.4l10.3-.9c-1.7,2.4-2.1,3-4.3,5h-7c.2-1.3.7-2.9,1.1-4.2Z"/>
    <path class="st29" d="M804.2,623.7h1.2c0,.1.2.7.2.7,3.3,8.3,10.9,11.7,12.8,17.5l-.3.4c-5.6-2.7-11.6-13-13.9-18.7Z"/>
    <path class="st0" d="M811.6,588.2c3.7,2.4,8.6,10.5,9.1,14.9-4.9-1.8-7.6-10.4-9.1-14.9Z"/>
    <path class="st29" d="M709.4,800.7l17.5-1.9-4.5,4.2c-3.1-.4-6.2-.9-9.3-1.1-1.3-.3-2.5-.4-3.9-.6v-.7Z"/>
    <path class="st40" d="M836.6,628.5c4.4,0,9,.3,13.4.5l-4.8,1.7c-3,.8-8.8,1.4-12.2,2l3.5-4.3Z"/>
    <path class="st11" d="M651.4,801.8c1.1.8,3.5,6.2,4.2,7.7,2.7,6.2,6.5,10.1,10,15.6-6-1.8-13.1-17.1-14.2-23.3Z"/>
    <path class="st0" d="M808.5,591.9c3.6,2.8,7.8,10.5,8.5,15.2-4.8-1.8-7.2-10.6-8.5-15.2Z"/>
    <path class="st0" d="M814.9,584.3c3.4,2.3,8.2,10.5,9.6,14.5-5.7-1.4-7.9-9.5-9.6-14.5Z"/>
    <path class="st28" d="M816.1,682.1c6.4.3,10.5.3,16.9,0,.6,1.9,0,1.2,1.6,2.4,2.9.4,3.6-.1,6,.1-8.6,1.7-16.3,0-24.4-2.4Z"/>
    <path class="st0" d="M824.3,573.3c3.7,1.9,8.9,11,9.9,15.1-3.9-.8-8.7-11.4-9.9-15.1Z"/>
    <path class="st0" d="M801.6,598.8c3,2.1,9.1,11.8,10.2,15.4-5.2-1.7-8.5-10.5-10.2-15.4Z"/>
    <path class="st0" d="M827.1,569.8c3.1,1.6,9.7,11.4,10.5,14.9-4.5-1.5-8.9-10.6-10.5-14.9Z"/>
    <path class="st0" d="M866.9,526.9c2.4,1.5,8.4,10.8,8.3,13.8-4.4-1-7.6-9.7-8.3-13.8Z"/>
    <path class="st0" d="M830.3,566.8c3.5,2.2,9.3,10,9.9,14.2-4.6-2-8.2-9.6-9.9-14.2Z"/>
    <path class="st0" d="M821.7,577.3c3.4,1.7,8.5,10.7,9.3,14.4-4.5-1-7.9-10.5-9.3-14.4Z"/>
    <path class="st29" d="M722.6,793.9c2.1-.3,6.5-1,8.4-.2v.8c-2.1,3.2-10.6,2.4-14.5,2.4,2.2-1.4,3.6-1.1,6.1-3Z"/>
    <path class="st0" d="M837.6,559.8c3.8,2.2,8.8,9.5,9.1,13.9-4.4-2.2-7.3-9.5-9.1-13.9Z"/>
    <path class="st28" d="M848,631.9c6.4-1.3,19.7-1.2,26.8-1.4l-.9.2c-2,.5-4.4.3-5.6,1.3v.4c-4.3.8-15.8,0-20.2-.6Z"/>
    <path class="st40" d="M815.3,654.1c2.5,0,7.4-.3,9.5,1v.8c-.1,0-1.8,1-1.8,1-3.5.5-7,.5-10.6.5l2.9-3.4Z"/>
    <path class="st0" d="M893.2,498.3c2.7,1.5,8,7.4,8.6,10.6-.9.1-1.4,0-2.3,0-4-2.2-5-6.4-6.3-10.6Z"/>
    <path class="st0" d="M897.5,494.2c3.7,1.3,7.4,6.7,7,10.8h-1.2c-3.7-2.4-4.7-6.8-5.7-10.8Z"/>
    <path class="st29" d="M684.9,828.1h7.3c0,0,1.7.2,1.7.2l.4.8c-2.1,2.7-4.8,2.5-7.8,2h-2.7c0-.1-1-1.2-1-1.2l.2-.9,1.9-.9Z"/>
    <path class="st28" d="M684.9,828.1h7.3c-3.3.6-3.7.4-5.7,3h-2.7c0-.1-1-1.2-1-1.2l.2-.9,1.9-.9Z"/>
    <path class="st0" d="M841,555.4c2,1.8,9,10.8,9.4,13.7-4.3.4-8.6-10.1-9.4-13.7Z"/>
    <path class="st29" d="M801.4,640.4c2.7,2.6,7.1,6.3,8,9.7l-.4.6c-2.9-.5-6.6-5.5-8.3-7.9l-.2-.3.9-2.1Z"/>
    <path class="st0" d="M799.7,604.3c3.5,2.3,8.4,10.4,9.9,14.5-5.2-1.9-8-9.7-9.9-14.5Z"/>
    <path class="st0" d="M805,594.9c3.2,3,7.5,11.4,9.1,15.6-5.2-3.3-7.8-9.8-9.1-15.6Z"/>
    <path class="st38" d="M794.1,647.9c3.4,2.1,9.2,9.3,10.6,13.2-4.8-2.9-9.3-7.5-10.6-13.2Z"/>
    <path class="st0" d="M844.5,552.4c2.9,2.4,7.5,9.2,9,12.9-5.4-.6-7.6-8.5-9-12.9Z"/>
    <path class="st11" d="M653.7,799.3c1.1,1.4,11.5,18.2,12.8,20.4-5.4-2.8-11-14.7-12.8-20.4Z"/>
    <path class="st27" d="M990.8,445c1.7.7,4.8,1.8,5.5,3.7-1.1,1.1-1.2.7-3.2.9-2.5,0-5.1.1-7.7.2,2.1-2.1,3-2.9,5.3-4.8Z"/>
    <path class="st0" d="M870.1,523.7c3.1,1.9,7.2,9.2,8.5,12.7-5.3-1.1-7.2-8.1-8.5-12.7Z"/>
    <path class="st0" d="M860.2,535.3c3.5,2.2,7.9,8.3,8.9,12.4-4.4-.8-7.7-8.4-8.9-12.4Z"/>
    <path class="st28" d="M762.2,725c6.8,4.3,12.4,8.2,18.8,12.9l-.5.7c-8.7-4.9-11.6-6.4-18.3-13.6Z"/>
    <path class="st0" d="M863.5,531.4c3.6,2.8,7.1,8.2,8.6,12.5-5.5-1.9-7.2-7.3-8.6-12.5Z"/>
    <path class="st29" d="M641.7,814.8c2.3,1.7,11.5,13.6,14.2,16.9-4.7-1.2-12.2-12.3-14.2-16.9Z"/>
    <path class="st38" d="M808,624.3c3.9,2,12.5,10.9,14.9,14.9-4.7-1.6-11.9-10.9-14.9-14.9Z"/>
    <path class="st0" d="M886.6,506.4c2.9,2.1,7.4,7.4,7.1,11.2-4.6-.5-6.1-7.4-7.1-11.2Z"/>
    <path class="st22" d="M902,566.4c-4.4,0-8.8,1.5-12.9,1l-.4-.5c2.9-4,10.1-1.9,14.7-1.5l-1.4,1Z"/>
    <path class="st29" d="M743.2,706.8c3.3,2.3,10.9,14.4,13,18.3-4.5-2.6-10.5-13.8-13-18.3Z"/>
    <path class="st11" d="M692.8,757.8c.9.9,3.5,5.7,4.7,7.4,3,4.2,6.3,8.1,9.2,12.4-6.1-2.9-12-13.5-13.9-19.8Z"/>
    <path class="st11" d="M573.6,934.3l1.1-1.6h1c.5,2.3,5.9,5.5,7.1,8.2l-.7.7c-3.3-.3-6.8-4.8-8.5-7.3Z"/>
    <path class="st0" d="M876.5,517.9c2.9,2.1,6.7,8,7.2,11.6-5-1.3-6.1-7.2-7.2-11.6Z"/>
    <path class="st0" d="M882.4,510.3c3.2,2.1,7.3,7.6,7.6,11.5h-1.5c-2.8-2.3-4.7-7.9-6.1-11.5Z"/>
    <path class="st0" d="M852.8,543.3c3.5,2.4,7,8.5,8.5,12.4-5-1.3-7-8-8.5-12.4Z"/>
    <path class="st0" d="M901.8,489.4c2.9,2.3,6.2,7.2,6.8,11-.7,0-1.1-.2-1.8-.3-3.3-2.6-4.4-6.6-5-10.6Z"/>
    <path class="st11" d="M664.1,787.8c3,1.9,11.9,15.7,13.5,19.3-5.1-4.5-10.2-13.4-13.5-19.3Z"/>
    <path class="st40" d="M890.2,578.6c-2.4,0-9.2,1.2-10.3-.6,2.3-3.7,6.8-2.1,10.4-1.5v2Z"/>
    <path class="st29" d="M791.4,653.3c3.3,1.2,8.3,8.8,10.2,11.8-4.9-2.1-8.5-6.8-10.2-11.8Z"/>
    <path class="st39" d="M730.7,775.9c1.6,0,4.5,0,6,.2.9,1.7.7,2,2.6,2.9-3.3-.2-8.1,0-11.5,0,.7-.9,2-2.2,2.8-3.1Z"/>
    <path class="st40" d="M919,582.5h5.7c-.3,1.2-.8,2.8-1.1,4h-5.9s-.6-1.3-.6-1.3c.1-1.8,0-1.2,1.8-2.7Z"/>
    <path class="st40" d="M815,665.5c-2.5.1-4.8.5-6.9-.6v-.7c3.5-2.4,5.8-1.8,10-1.6-1.2,1.8-1.2,1.9-3.1,2.9Z"/>
    <path class="st0" d="M849.8,546.4c3.9,3.3,7.2,8,8.9,12.8-4.7-1.8-7.3-8.4-8.9-12.8Z"/>
    <path class="st0" d="M847.3,549.3c3.1,2.1,7.6,9,8.7,12.8-4.4-1.6-7.2-8.7-8.7-12.8Z"/>
    <path class="st11" d="M856.7,538.3c3.2,2.1,7.6,9,9,12.8-4.9-2.4-7.3-8-9-12.8Z"/>
    <path class="st40" d="M939.3,506c1.7.2,5,.2,6.2,1.3-.8,1.5-1.3,1.3-3.2,2.4l-6.8,1.2c1.1-1.5,2.6-3.3,3.7-4.8Z"/>
    <path class="st0" d="M905.6,485.7c2.8,1.6,6.3,7,6.1,10.5-3.9.3-5.3-7.6-6.1-10.5Z"/>
    <path class="st38" d="M944.4,559.9l10.6-1.2c-2.5,2.4-3.7,3.8-7.1,4.5l-2.4-.5c-1.2-1.2-.8-.8-1-2.9Z"/>
    <path class="st0" d="M879.5,514.3c3.4,2.3,6.4,7.3,7.2,11.5-4-.8-6-7.9-7.2-11.5Z"/>
    <path class="st0" d="M916.5,474.4c3.1,2.1,5.6,6.3,6.3,10-4.7-.3-5.7-6.2-6.3-10Z"/>
    <path class="st0" d="M873,520.9c2.7,1.9,7.2,8.9,7.7,12.2-4.7-2.5-6.2-7.5-7.7-12.2Z"/>
    <path class="st40" d="M818.5,688.5c3.3,0,7,.3,10.3.4v3.7c-4.2-.4-6.8-2.1-10.3-4.1Z"/>
    <path class="st29" d="M736.8,776.1c3.6-.3,6.4-1,9.4,1v.3c0,0-.6-.6-.6-.6v1.2c-2.6,1.1-3.3,1-6.2,1.1-1.9-.9-1.7-1.2-2.6-2.9Z"/>
    <path class="st0" d="M909.6,482.3c2.6,1.6,6.1,6.4,6,9.8-4.4-.1-5.3-6.4-6-9.8Z"/>
    <path class="st11" d="M568.1,939.9c.6-.8,1.2-1.9,1.8-2.7,1.8,2.9,6.4,6.2,9.2,10-4.9-2.4-6.6-4-11-7.2Z"/>
    <path class="st40" d="M966.5,474.4c2.2.1,5.1.6,7,1.6l.2.7-1.4.7c-2.3.2-6.2,1.1-7.8.2.2-1.6.7-1.7,2-3.2Z"/>
    <path class="st40" d="M934.7,512.1c2.8-.3,5.5,0,8.3,0-1.6.9-3.3,1.7-4.8,2.5-2.1.6-3.8,1.3-5.7.5.5-1.8.8-1.6,2.3-3.1Z"/>
    <path class="st29" d="M673.8,843.6c2.1-.2,3.5-.6,5.1.4-.7,1.8-1.2,1.7-3,3.1-.7.2-1.6.4-2.3.5-1.9-.7-1.2-.1-2.2-1.7.5-1.8.2-1.2,2.3-2.4Z"/>
    <path class="st25" d="M948.8,494.6c1.9,0,5.3-.3,7,.3-.4,1.3-1.5,1.6-2.9,2.5l-7.3.9c.9-1.2,2.2-2.6,3.2-3.7Z"/>
    <path class="st40" d="M980.8,455.7c3.8-4.1,5.1-4.6,10.1-1.9l-.9,1.2c-2.5.4-6.6.5-9.2.7Z"/>
    <path class="st0" d="M913.1,478.4c3,2.7,5.8,5.5,6,9.8-4.1,0-5.2-6.5-6-9.8Z"/>
    <path class="st0" d="M926.8,463.4c4,2.6,4.8,4.9,5.7,9.5-4.5-1.3-4.8-5.5-5.7-9.5Z"/>
    <path class="st40" d="M979.4,458c2.1.1,5.4,0,7.2.9-.7,1.1-1.3,1-2.9,1.7-2.3.5-5.2.9-7.6,1.3l3.3-3.9Z"/>
    <path class="st11" d="M889.7,502.8c3.6,2,6.3,6.6,7.5,10.5-3.9-.8-6.2-7-7.5-10.5Z"/>
    <path class="st40" d="M929.9,518.1c2-.1,4.5-.6,5.9,1.1-1.2,1.3-1.1,1-3,1.6-2,.4-3.7.9-5.4.1.6-1.6,1-1.5,2.6-2.8Z"/>
    <path class="st27" d="M758.8,737.9c-1.6-1.4-4-4.2-3.9-6.5l.7-.4c2.5,1,4.1,3.6,5.8,5.7l-2.6,1.2Z"/>
    <path class="st0" d="M923.2,467.2c3.7,1.9,5.6,5.7,6,9.6-.5-.1-1.2-.5-1.7-.7-2.6-2.9-3.1-5.3-4.3-9Z"/>
    <path class="st11" d="M934.2,455.3c2.8,2.6,4.9,4.9,5.5,8.7-4.7.4-5-5.2-5.5-8.7Z"/>
    <path class="st38" d="M914.6,599.2c2.1-.3,4.6-.7,6.7-.9-1.6,2-2.4,3.2-4.5,4.7h-3.7c1.4-1.7,1-1.3,1.5-3.8Z"/>
    <path class="st0" d="M920.4,471.3c3.5,2,4.9,5.3,5.5,9.1-4.4-1.5-4.5-5-5.5-9.1Z"/>
    <path class="st11" d="M930.5,459.3c3.4,1.9,5.1,5.7,5.1,9.4-3.7-1.4-4.3-6-5.1-9.4Z"/>
    <path class="st0" d="M955.3,431.9c2.7,2.5,4.4,3.8,4.2,7.5-4-.2-5-4.2-4.2-7.5Z"/>
    <path class="st11" d="M682.7,833.4c1.9-.1,3.2-.4,4.9.4l.3.8c-2.2,2.3-5,1.9-7.9,1.3.7-1.5,1-1.4,2.6-2.5Z"/>
    <path class="st30" d="M569.9,937.1l2.4-.7c4.1,2.6,5.5,4.2,8.5,8.1-4.2-2.1-9.1-6.9-10.9-7.4Z"/>
    <path class="st0" d="M940.3,447.8c3.7,1.8,5,4,5.7,7.9-4.2-1.2-4.7-4.2-5.7-7.9Z"/>
    <path class="st11" d="M674.6,840.1c3-.7,5.7-1.6,8.7-1.6l.6.5c-1.3,2-2.3,2.7-4.7,2.4l-4.1-.6-.4-.8Z"/>
    <path class="st30" d="M629,868.2c1.9,1.6,7.4,5.8,7.6,8.1-3.4-1.7-5.6-4.4-8.3-7.2l.7-.9Z"/>
    <path class="st27" d="M950.1,518.2c-2.2.5-7.8,2-8.5-.9,1.3-1.3,3.7-1.6,5.3-.8,1,.6,2.1,1.2,3.2,1.7Z"/>
    <path class="st11" d="M567.3,940.6c3.1,2.9,5.9,5.4,8.7,8.6-2.7-1.6-8.3-5.5-10.6-6.1l1.9-2.5Z"/>
    <path class="st25" d="M953.8,488.5c2.5.5,3.2.5,5.4,1.6v.6c.1,0-1.3.6-1.3.6-1.7.2-4.3.8-5.6,0,0-1.6.2-1.3,1.5-2.9Z"/>
    <path class="st11" d="M736.1,781.6c2.3,0,4.2-.2,6.2.8v.7c-1.8,1.3-4.1,1.5-6.4,1.8v-2.9s.2-.3.2-.3Z"/>
    <path class="st11" d="M778.6,740.4c1.7.9,2.6,1.1,3.6,2.8l-.2,1.1c-2.4,1.2-3.4,0-5.5-1.3l2.1-2.6Z"/>
    <path class="st40" d="M961.7,479.3c2.1.1,5.1,0,6.5,1.5l-.8.8c-2,.3-5.6,1.4-6.6-.5l1-1.8Z"/>
    <path class="st11" d="M764.1,759.2l1.9,1.5c-1.2,1.6-1.4,2.1-3.3,2.7-1.2,0-1.7,0-2.9-.3.3-1.2.9-2.2,1.5-3.3l2.8-.6Z"/>
    <path class="st11" d="M958.2,428.2c3.1,1.2,4.5,3.9,5,7l-1.6-.4c-2.7-2.2-2.9-3.3-3.3-6.7Z"/>
    <path class="st0" d="M951.4,436.7c3,1.6,4.2,3.6,4.8,6.9-4.4-1.3-4.5-2.6-4.8-6.9Z"/>
    <path class="st0" d="M948.3,440.9c3.2,2,4.1,3.2,4.3,6.9-3.6-1.7-4.6-2.8-4.3-6.9Z"/>
    <path class="st27" d="M980.5,407c2.4.5,6,.9,6.2,3.7-2.1.3-2.4.5-4.3-.2-1.5-1.3-1.5-1.7-2-3.6Z"/>
    <path class="st27" d="M990,400c1.6-.1,2.2-.4,3.6.5.3,1.9,0,1.7-.9,3.8-1.8-.7-3.2-.9-3.8-2.9l1.1-1.4Z"/>
    <path class="st40" d="M910.1,541.1c1.5,0,6.1,0,7,.7l-2,.7c-1.9.6-4.4,1.5-6.3,1v-.9c0,0,1.2-1.6,1.2-1.6Z"/>
    <path class="st39" d="M888.1,601.9c-1.2-.7-7.6-.8-10.4-1.4,4.1-.4,6.3-.5,10.5-.4l.4.7,1.4.7-.3.4c-.6,0-1,0-1.6,0Z"/>
    <path class="st30" d="M855.5,541.9c3.2,1.9,6.1,7.4,7.5,10.9-2.6-1.4-6.1-8.1-7.5-10.9Z"/>
    <path class="st0" d="M937.3,452.3c3.1,1.5,4.1,3.9,5.2,7.1h-1.3c-2.4-1.8-2.9-4.3-3.8-7.1Z"/>
    <path class="st0" d="M944.2,444.3c3.1,2.1,3.7,3.7,5.4,6.9-4.1-.6-4.7-3.3-5.4-6.9Z"/>
    <path class="st25" d="M905.9,546.2c2.8-.2,4.3-.3,7.1,0l.2.4-1.4.5c-2.4.5-4.4.9-6.8.5l-.3-.6,1.2-.9Z"/>
    <path class="st28" d="M679.2,841.4c-4.1.2-7.2.6-11.2-.5l.4-.9v1s.2,0,.2,0l.6-1.1c1.7-.2,3.7,0,5.4.1l.4.8,4.1.6Z"/>
    <path class="st38" d="M894.9,571.8c-2.5.3-3.9.4-6.5.3h.5s-1.7-.6-1.7-.6l-.3.2.5-.5c2.7-.8,5.6-.5,8.5-.4l-1,.9Z"/>
    <path class="st29" d="M829,696.2c2.2-.3,4.4-.9,6.3.1l-.5,1.3c-1.9.6-1.9.6-3.9.6-1.7-1-1.2-.3-1.9-2Z"/>
    <path class="st39" d="M643.3,821.4c2.7,1.6,5.6,6.6,7.3,9.3-3-1.6-5.7-6.3-7.3-9.3Z"/>
    <path class="st30" d="M587.1,930.3c1.8,2.2,3.2,3.7,4.4,6.3l-.3.4c-.8-.7-1-.7-1.7-1.5-1-1.3-2.1-2.7-3.1-3.9l.7-1.3Z"/>
    <path class="st30" d="M688.2,753.8c1.9,2.1,3.7,6.2,4.9,8.9-3.1-1.6-4.2-5.8-4.9-8.9Z"/>
    <path class="st35" d="M755,716.2c2.3.8,4.7,5.3,6.1,7.6-2.7-.8-4.9-5.2-6.1-7.6Z"/>
    <path class="st40" d="M769.9,648.4c-2.1-3.3-4-6.4-5.2-10.2,2.1,3.2,4.3,6.5,6.2,9.9l-1,.3Z"/>
    <path class="st39" d="M990.9,453.8c1.9,0,5.7,0,7.1.8l-.2-.3.6.3-1-.2-.6.5c-2.3,0-4.5.2-6.8.2l.9-1.2Z"/>
    <path class="st29" d="M781,737.9c1.5.7,2.5,1,3.4,2.4v.9c-2.3.4-2.8-.9-3.9-2.6l.5-.7Z"/>
    <path class="st28" d="M870,626c-2.2,0-4.7.3-6.6-.5,1.3-.8,4.1-.8,5.7-.9.5,1,.2.8.9,1.4Z"/>
    <path class="st39" d="M957.2,510.2c-1.9.3-4.3.7-6.1,0,1.1-.9,2.5-.8,4-.9l2.1,1Z"/>
    <path class="st39" d="M903.4,565.4c1.7.1,2.8,0,4.3.7-1.2,1.1-4.1.5-5.7.3l1.4-1Z"/>
    <path class="st27" d="M935.7,542.2c-2.5.5-5.2.5-7.6-.2,1.4-.7,1.9-.5,3.5-.5,1.3.2,2.8.6,4.1.7Z"/>
    <path class="st28" d="M613.6,844.8l2.5,6.5c-3-2.1-3.4-3.2-2.5-6.5Z"/>
    <path class="st28" d="M1001.3,387.4l.4.6c-1,1.4-1.8,2.6-2.8,4l-.6-1c.5-1.6,1.7-2.4,3-3.6Z"/>
    <path class="st28" d="M618.8,855.3c1.7.7,2.5,1.7,3.8,3l-.6.2c-1.3-.6-2.3-2-3.2-3.2Z"/>
  </g>
  <text class="st31" transform="translate(98.8 361.8)"><tspan x="0" y="0">ART </tspan></text>
  <text class="st32" transform="translate(88.4 518)"><tspan class="st33" x="0" y="0">Na</tspan><tspan class="st36" x="193.8" y="0">rr</tspan><tspan class="st37" x="368.3" y="0">at</tspan><tspan class="st34" x="551.5" y="0">or</tspan></text>
</svg>